<svg width="81" height="49" viewBox="0 0 81 49" fill="none" xmlns="http://www.w3.org/2000/svg">
<path d="M22.824 17.7228C22.824 18.7272 22.9536 19.4724 23.067 20.088C23.31 20.7036 23.5692 21.3354 23.9418 22.0806C24.0714 22.3236 24.1848 22.4532 24.1848 22.6962C24.1848 22.9392 24.0552 23.1984 23.6826 23.4414L21.933 24.5592C21.69 24.6888 21.4308 24.8022 21.1878 24.8022C20.9448 24.8022 20.6856 24.6726 20.4426 24.4296C20.07 24.057 19.6974 23.5548 19.4382 23.1822C19.1952 22.68 18.936 22.1778 18.5634 21.5622C16.4412 24.057 13.833 25.3044 10.5768 25.3044C8.32505 25.3044 6.46205 24.6888 5.21465 23.3118C3.83765 22.0644 3.22205 20.3148 3.22205 18.0792C3.22205 15.8436 3.96725 13.9644 5.71685 12.474C7.46645 11.2266 9.58864 10.611 12.456 10.611C13.3308 10.611 14.319 10.7406 15.3234 10.854C16.3278 10.9836 17.316 11.2266 18.4338 11.4696V9.477C18.4338 7.4844 18.0612 5.994 17.1864 5.1192C16.3116 4.2444 14.8212 3.8718 12.8286 3.8718C11.8242 3.8718 10.9656 4.0014 9.96125 4.2444C8.95685 4.4874 7.96865 4.7466 7.09385 5.1192C6.72125 5.3622 6.34865 5.3622 6.08945 5.4918C5.84645 5.4918 5.71685 5.6214 5.71685 5.6214C5.34425 5.6214 5.10125 5.3784 5.10125 4.7466V3.3696C5.10125 2.997 5.10125 2.6244 5.34425 2.3652C5.47385 2.1222 5.71685 1.9926 6.08945 1.7496C7.09385 1.2474 8.21165 0.874799 9.45905 0.502199C10.836 0.129599 12.1968 0 13.7034 0C16.9434 0 19.3086 0.745199 20.8152 2.2518C22.3218 3.7584 23.067 5.8644 23.067 8.8614L22.824 17.7228ZM11.8404 21.8376C12.7152 21.8376 13.59 21.708 14.5782 21.3354C15.5826 20.9628 16.4412 20.4606 17.2026 19.5858C17.5752 19.0836 17.9478 18.468 18.0774 17.8362C18.207 17.2206 18.3204 16.4592 18.3204 15.471V14.3532C17.5752 14.1102 16.7004 13.9806 15.8256 13.851C14.9508 13.7214 14.076 13.7214 13.3308 13.7214C11.5812 13.7214 10.2204 14.094 9.34565 14.8392C8.47085 15.5844 7.96865 16.5888 7.96865 17.9496C7.96865 19.197 8.34125 20.2014 8.97305 20.817C9.71825 21.465 10.593 21.8376 11.8404 21.8376ZM33.5322 24.705C33.03 24.705 32.787 24.5754 32.5278 24.462C32.2848 24.3324 32.1552 23.9598 31.9122 23.4576L25.5456 2.511C25.416 2.0088 25.3026 1.6362 25.3026 1.3932C25.3026 1.0206 25.5456 0.777599 25.9182 0.777599H28.656C29.1582 0.777599 29.5308 0.9072 29.6604 1.0206C29.9034 1.1502 30.033 1.5228 30.1626 2.025L34.7796 19.9746L39.024 2.1384C39.1536 1.6362 39.267 1.2636 39.5262 1.134C39.7854 1.0044 40.1418 0.891 40.644 0.891H42.7662C43.2684 0.891 43.641 1.0206 43.884 1.134C44.127 1.2636 44.2566 1.6362 44.3862 2.1384L48.6306 20.2176L53.2476 2.1384C53.3772 1.6362 53.6202 1.2636 53.7498 1.134C53.9928 1.0044 54.3654 0.891 54.7542 0.891H57.249C57.6216 0.891 57.8646 1.134 57.8646 1.5066C57.8646 1.6362 57.8646 1.7496 57.8646 1.8792C57.8646 2.0088 57.735 2.2518 57.6216 2.4948L51.1416 23.3118C51.012 23.814 50.769 24.1866 50.526 24.3162C50.283 24.4458 49.9104 24.5592 49.5216 24.5592H47.3994C46.8972 24.5592 46.5246 24.4296 46.2816 24.3162C46.0386 24.0732 45.909 23.814 45.7794 23.1984L41.535 5.8644L37.4202 23.3118C37.2906 23.814 37.1772 24.1866 36.918 24.4296C36.675 24.6726 36.3024 24.6726 35.8002 24.6726C35.784 24.705 33.5322 24.705 33.5322 24.705ZM68.2002 25.4502C66.8232 25.4502 65.4624 25.3206 64.0854 24.948C62.7084 24.5754 61.7202 24.3324 60.975 23.8302C60.6024 23.5872 60.2298 23.328 60.1002 23.085C59.9706 22.8258 59.9706 22.5828 59.9706 22.3398V20.9628C59.9706 20.3472 60.2136 20.088 60.5862 20.088C60.7158 20.088 60.9588 20.088 61.0884 20.2176C61.218 20.2176 61.461 20.3472 61.704 20.4606C62.5788 20.8332 63.567 21.2058 64.701 21.465C65.8188 21.708 66.8232 21.8376 67.941 21.8376C69.6906 21.8376 70.938 21.5946 71.9262 20.9628C72.801 20.3472 73.3032 19.4724 73.3032 18.3384C73.3032 17.5932 73.0602 16.9614 72.558 16.4754C72.0558 15.9732 71.0676 15.471 69.8202 14.985L65.9484 13.7376C63.9558 13.122 62.5788 12.2472 61.5906 10.9998C60.7158 9.7524 60.2136 8.505 60.2136 7.128C60.2136 6.0102 60.4566 5.0058 60.9588 4.131C61.461 3.2562 62.0766 2.511 62.9514 1.8792C63.6966 1.2636 64.701 0.761399 65.6892 0.502199C66.807 0.129599 67.941 0 69.0588 0C69.6744 0 70.3062 -1.20699e-07 70.8084 0.1296C71.424 0.2592 72.0558 0.372599 72.558 0.372599C73.0602 0.502199 73.5624 0.6156 74.0484 0.7452C74.5506 0.8748 74.9232 1.1178 75.1662 1.2474C75.5388 1.4904 75.7818 1.62 75.9114 1.863C76.041 2.106 76.1544 2.3652 76.1544 2.7378V3.9852C76.1544 4.6008 75.9114 4.86 75.5388 4.86C75.2958 4.86 74.9232 4.7304 74.5344 4.4874C73.044 3.7422 71.2944 3.483 69.3018 3.483C67.8114 3.483 66.564 3.726 65.6892 4.2282C64.8144 4.7304 64.4418 5.4756 64.4418 6.5934C64.4418 7.3386 64.6848 7.9704 65.187 8.4564C65.6892 8.9586 66.6774 9.4608 68.184 9.9468L72.0558 11.1942C74.0484 11.8098 75.4254 12.6846 76.3002 13.8186C77.175 14.9364 77.5476 16.1838 77.5476 17.5608C77.5476 18.6786 77.3046 19.8126 76.8024 20.6712C76.3002 21.5298 75.6846 22.4208 74.8098 23.0364C73.935 23.652 72.9468 24.1542 71.8128 24.5268C70.8246 25.2072 69.5772 25.4502 68.2002 25.4502Z" fill="#D9D9D9" fill-opacity="0.82"/>
<path fill-rule="evenodd" clip-rule="evenodd" d="M73.3195 38.5391C64.4743 45.1487 51.6277 48.5183 40.5307 48.5183C24.9463 48.5183 10.9819 42.7835 0.387058 33.3065C-0.487742 32.5613 0.257459 31.5569 1.26186 32.0591C12.7315 38.6687 26.8255 42.6539 41.4055 42.6539C51.2551 42.6539 62.1091 40.6613 71.9587 36.4169C73.4329 35.8013 74.6803 37.4213 73.3195 38.5391Z" fill="#A6A6A6"/>
<path fill-rule="evenodd" clip-rule="evenodd" d="M76.9321 34.3113C75.8143 32.8209 69.4477 33.5661 66.5803 33.9387C65.7055 34.0683 65.5759 33.3231 66.3373 32.6913C71.4565 29.0787 79.6861 30.1965 80.6743 31.3143C81.6787 32.5617 80.4313 40.9209 75.6847 44.9061C74.9395 45.5217 74.3077 45.1491 74.5669 44.4039C75.6847 41.7795 78.0499 35.8017 76.9321 34.3113Z" fill="#A6A6A6"/>
</svg>
