<svg width="73" height="73" viewBox="0 0 73 73" fill="none" xmlns="http://www.w3.org/2000/svg">
<g clip-path="url(#clip0_1_3645)">
<path d="M33.7843 64.0208C43.2305 62.1082 50.8809 60.5314 50.9977 60.5314H51.0999L42.2085 48.3842C37.3759 41.7412 33.3171 36.237 33.3171 36.237C33.3171 36.237 42.4275 7.10996 42.5443 6.99316C42.5443 6.99316 48.8369 19.3594 57.6115 37.0254L72.7955 67.2766L72.9123 67.4956H44.9241H16.6877L33.7843 64.0208Z" fill="#A6A6A6"/>
<path d="M-0.072998 60.3124C-0.072998 60.3124 4.088 51.9904 9.2564 41.7558L18.5858 23.1992L29.3898 12.7456C35.3466 7.00779 40.1938 2.29199 40.296 2.29199C40.296 2.51099 40.1792 2.62779 40.077 2.74459L28.2656 31.8716L16.6732 60.327H8.3512C3.7522 60.4292 -0.072998 60.3124 -0.072998 60.3124Z" fill="#A6A6A6"/>
</g>
<defs>
<clipPath id="clip0_1_3645">
<rect width="73" height="73" fill="white"/>
</clipPath>
</defs>
</svg>
