<?xml version="1.0" encoding="utf-8"?>
<!-- Generator: Adobe Illustrator 26.5.0, SVG Export Plug-In . SVG Version: 6.00 Build 0)  -->
<svg version="1.1" id="Layer_1" xmlns="http://www.w3.org/2000/svg" xmlns:xlink="http://www.w3.org/1999/xlink" x="0px" y="0px"
	 width="50px" height="50px" viewBox="0 0 50 50" style="enable-background:new 0 0 50 50;" xml:space="preserve">
<style type="text/css">
	.st0{fill:#E1262F;}
</style>
<g>
	<ellipse class="st0" cx="22.07" cy="3.87" rx="3.14" ry="3.14"/>
	<circle class="st0" cx="45.06" cy="43.93" r="4.94"/>
	<circle class="st0" cx="2.18" cy="43.93" r="2.18"/>
	<path class="st0" d="M22.05,10.32c-10.57,0-19.12,8.55-19.12,19.12s8.55,19.12,19.12,19.12s19.12-8.55,19.12-19.12
		S32.62,10.32,22.05,10.32L22.05,10.32z M9.1,22.01l12.92-7.46l12.88,7.46v6.75l-5.93-1.91v-1.4l-6.95-4.02l-5.11,2.97l18,5.76v6.75
		l-12.92,7.46L9.07,36.94v-6.78l5.96,1.87v1.4l6.95,4.02l5.18-3L9.1,28.73L9.1,22.01z"/>
</g>
</svg>
