<svg width="90" height="90" viewBox="0 0 90 90" fill="none" xmlns="http://www.w3.org/2000/svg">
<g clip-path="url(#clip0_1_3579)">
<path d="M44.586 16.6318C40.428 19.5298 35.73 22.8598 33.246 28.3858C28.818 37.9258 42.246 48.3118 42.786 48.8698C42.93 49.0138 43.056 49.0138 43.2 49.0138C43.344 49.0138 43.47 49.0138 43.614 48.8698C43.884 48.5998 43.884 48.3118 43.758 47.8978C43.758 47.7538 38.916 38.4838 39.06 31.8418C39.06 29.4838 42.39 26.8558 45.846 24.0838C49.032 21.5998 52.632 18.6838 54.702 15.2278C59.274 7.75778 54.144 0.413781 54.144 0.287781C54 0.0177808 53.586 -0.126219 53.316 0.0177808C53.046 0.161781 52.758 0.575781 52.902 0.845781C52.902 0.845781 53.874 5.68778 51.102 10.8178C49.968 12.8878 47.484 14.6878 44.586 16.6318Z" fill="#D9D9D9"/>
<path d="M62.01 19.9434C62.28 19.6734 62.424 19.2594 62.154 18.9714C62.01 18.7014 61.596 18.5574 61.182 18.7014C60.498 18.9714 43.884 25.3434 43.884 33.1014C43.884 38.3574 46.098 41.2734 47.754 43.3434C48.438 44.1714 48.996 44.8734 49.14 45.4134C49.698 47.0694 48.456 50.2554 47.898 51.2274C47.754 51.4974 47.754 51.9114 48.042 52.0554C48.186 52.1994 48.312 52.1994 48.456 52.1994C48.6 52.1994 48.726 52.1994 48.87 52.0554C49.14 51.9114 55.782 47.0694 54.684 41.3994C54.27 39.1854 53.154 37.6554 52.2 36.2874C50.67 34.0734 49.716 32.5434 51.228 29.6454C53.568 26.4414 62.01 20.0874 62.01 19.9434Z" fill="#D9D9D9"/>
<path d="M18.846 52.4695C18.576 53.2975 18.702 54.1255 19.26 54.9535C21.06 57.4375 27.432 58.8235 37.242 58.8235C38.628 58.8235 40.014 58.8235 41.4 58.6795C57.042 58.1215 62.856 53.2795 62.982 53.0095C63.252 52.7395 63.252 52.4515 63.126 52.0375C62.982 51.7675 62.568 51.6235 62.298 51.6235C56.754 53.1535 46.53 53.6935 39.474 53.6935C31.446 53.6935 27.432 53.1355 26.46 52.7215C27.018 52.0375 30.06 50.7775 34.074 49.9495C34.488 49.8055 34.758 49.5355 34.632 49.1215C34.488 48.7075 34.218 48.4375 33.948 48.4375C31.572 48.5815 20.088 48.7255 18.846 52.4695Z" fill="#A6A6A6"/>
<path d="M71.154 47.3398C67.968 47.3398 64.926 48.9958 64.782 48.9958C64.512 49.1398 64.368 49.5538 64.368 49.8238C64.512 50.0938 64.782 50.3818 65.052 50.3818C65.052 50.3818 71.964 50.3818 72.522 54.2518C73.08 57.5818 66.024 62.9638 63.396 64.9078C63.126 65.0518 62.982 65.4658 63.126 65.8798C63.27 66.1498 63.54 66.2938 63.81 66.2938H63.954C64.638 66.1498 79.866 62.8378 78.21 53.9818C77.238 48.5818 73.782 47.3398 71.154 47.3398Z" fill="#A6A6A6"/>
<path d="M60.624 63.9538C60.624 63.6838 60.624 63.3958 60.354 63.2698L56.754 60.6418C56.61 60.4978 56.34 60.4978 56.196 60.4978C56.196 60.4978 52.326 61.4698 46.782 62.1538C44.568 62.4238 42.084 62.5678 39.582 62.5678C34.038 62.5678 30.456 61.8838 29.898 61.4518C29.754 61.3078 29.898 61.3078 29.898 61.1818C30.042 60.9118 30.456 60.6238 30.87 60.4978C31.284 60.3538 31.428 59.9398 31.284 59.5258C31.14 59.1118 30.726 58.9678 30.456 58.9678C26.856 59.7958 25.056 61.0378 25.2 62.7118C25.47 65.4838 31.842 66.8698 37.242 67.2838C38.07 67.2838 38.898 67.4278 39.726 67.4278C48.726 67.4278 60.21 64.6558 60.336 64.5298C60.354 64.3678 60.624 64.2238 60.624 63.9538Z" fill="#A6A6A6"/>
<path d="M33.084 69.8938C33.354 69.7498 33.498 69.3358 33.354 69.0658C33.21 68.7958 32.94 68.5078 32.67 68.5078C32.112 68.5078 27.828 68.7778 27.558 71.4058C27.414 72.2338 27.702 72.9358 28.242 73.6198C29.772 75.4198 33.912 76.5178 40.968 76.9498C41.796 76.9498 42.624 77.0938 43.452 77.0938C52.452 77.0938 58.392 74.3218 58.68 74.1958C58.95 74.0518 59.094 73.7818 59.094 73.5118C59.094 73.2418 58.95 72.9538 58.68 72.8278L54.108 70.0558C53.964 69.9118 53.694 69.9118 53.55 69.9118C53.55 69.9118 50.652 70.4698 46.224 71.1538C45.396 71.2978 44.28 71.2978 43.038 71.2978C38.61 71.2978 33.768 70.6138 32.796 70.0558C32.958 70.0378 32.958 69.8938 33.084 69.8938Z" fill="#A6A6A6"/>
<path d="M39.456 85.5358C59.94 85.5358 71.01 81.7918 73.08 79.5778C73.764 78.7498 73.908 78.0478 73.908 77.5078C73.764 76.2658 72.666 75.5638 72.522 75.4378C72.252 75.2938 71.838 75.2938 71.55 75.5818C71.262 75.8698 71.28 76.2658 71.55 76.5538C71.694 76.6978 71.694 76.9678 71.406 77.3818C70.578 78.2098 61.992 80.5678 47.736 81.2518C45.792 81.3958 43.722 81.3958 41.652 81.3958C28.926 81.3958 19.512 79.5958 18.27 78.6238C18.684 77.9398 22.014 76.8238 25.596 76.2658C26.01 76.2658 26.28 75.8518 26.154 75.4378C26.154 75.0238 25.74 74.7538 25.326 74.8798C25.182 74.8798 24.912 74.8798 24.498 74.8798C18.684 75.2938 12.042 75.9958 11.628 79.0378C11.484 80.0098 11.772 80.8378 12.456 81.5218C14.004 83.1778 18.558 85.5358 39.456 85.5358Z" fill="#A6A6A6"/>
<path d="M77.094 80.2794C76.824 80.1354 76.41 80.2794 76.266 80.4234C76.266 80.4234 73.08 83.7534 63.81 85.5354C60.21 86.2194 53.568 86.6514 44.028 86.6514C34.344 86.6514 25.2 86.2194 25.2 86.2194C24.786 86.2194 24.516 86.4894 24.372 86.9034C24.372 87.3174 24.516 87.5874 24.93 87.7314C25.074 87.7314 34.614 89.9454 47.754 89.9454C53.982 89.9454 60.21 89.3874 65.88 88.4154C76.68 86.4714 77.364 81.2154 77.508 80.9454C77.652 80.6934 77.382 80.4234 77.094 80.2794Z" fill="#A6A6A6"/>
</g>
<defs>
<clipPath id="clip0_1_3579">
<rect width="90" height="90" fill="white"/>
</clipPath>
</defs>
</svg>
