<svg width="76" height="76" viewBox="0 0 76 76" fill="none" xmlns="http://www.w3.org/2000/svg">
<g clip-path="url(#clip0_1_3631)">
<path d="M50.5402 24.1675L57.1522 17.5555L57.593 14.7739C45.5546 3.82993 26.4178 5.06113 15.565 17.3579C12.5554 20.7779 10.3058 25.0339 9.12024 29.4419L11.4914 29.1075L24.7002 26.9339L25.7186 25.8851C31.601 19.4251 41.5266 18.5587 48.321 24.0611L50.5402 24.1675Z" fill="white"/>
<path d="M66.561 29.2448C65.041 23.6512 61.925 18.62 57.593 14.7744L48.321 24.0464C52.2426 27.2384 54.4618 32.072 54.3706 37.1184V38.76C58.9306 38.76 62.6242 42.4536 62.6242 47.0136C62.6242 51.5736 58.9306 55.176 54.3706 55.176H37.8482L36.2218 56.9392V66.8344L37.8482 68.4H54.3706C66.2266 68.4912 75.909 59.052 76.0002 47.196C76.061 40.0064 72.5194 33.2728 66.561 29.2448Z" fill="#A6A6A6"/>
<path d="M21.341 68.3995H37.8482V55.1755H21.341C20.1706 55.1755 19.0306 54.9171 17.9514 54.4307L15.6106 55.1451L8.95297 61.7571L8.37537 64.0067C12.1146 66.8339 16.6594 68.4147 21.341 68.3995Z" fill="#C7C7C7"/>
<path d="M21.341 25.5354C9.485 25.5962 -0.0757942 35.2786 0.000205837 47.1194C0.0458058 53.7466 3.13141 59.9634 8.37541 64.0066L17.9514 54.4306C13.8018 52.561 11.9474 47.6666 13.8322 43.517C15.7018 39.3674 20.5962 37.513 24.7458 39.3978C26.5698 40.2186 28.0442 41.693 28.865 43.517L38.441 33.941C34.3674 28.621 28.0442 25.505 21.341 25.5354Z" fill="#E0E0E0"/>
</g>
<defs>
<clipPath id="clip0_1_3631">
<rect width="76" height="76" fill="white" transform="translate(0.000244141)"/>
</clipPath>
</defs>
</svg>
