<?xml version="1.0" encoding="utf-8"?>
<!-- Generator: Adobe Illustrator 26.5.0, SVG Export Plug-In . SVG Version: 6.00 Build 0)  -->
<svg version="1.1" id="Layer_1" xmlns="http://www.w3.org/2000/svg" xmlns:xlink="http://www.w3.org/1999/xlink" x="0px" y="0px"
	 width="50px" height="50px" viewBox="0 0 50 50" style="enable-background:new 0 0 50 50;" xml:space="preserve">
<style type="text/css">
	.st0{fill:#EA4335;}
	.st1{fill:#4285F4;}
	.st2{fill:#34A853;}
	.st3{fill:#FBBC05;}
</style>
<g>
	<path class="st0" d="M33.25,15.9l4.35-4.35l0.29-1.83c-7.92-7.2-20.51-6.39-27.65,1.7C8.26,13.67,6.78,16.47,6,19.37l1.56-0.22
		l8.69-1.43l0.67-0.69c3.87-4.25,10.4-4.82,14.87-1.2L33.25,15.9z"/>
	<path class="st1" d="M43.79,19.24c-1-3.68-3.05-6.99-5.9-9.52l-6.1,6.1c2.58,2.1,4.04,5.28,3.98,8.6v1.08c3,0,5.43,2.43,5.43,5.43
		c0,3-2.43,5.37-5.43,5.37H24.9l-1.07,1.16v6.51L24.9,45h10.87c7.8,0.06,14.17-6.15,14.23-13.95
		C50.04,26.32,47.71,21.89,43.79,19.24"/>
	<path class="st2" d="M14.04,45H24.9V36.3H14.04c-0.77,0-1.52-0.17-2.23-0.49l-1.54,0.47l-4.38,4.35l-0.38,1.48
		C7.97,43.97,10.96,45.01,14.04,45"/>
	<path class="st3" d="M14.04,16.8C6.24,16.84-0.05,23.21,0,31c0.03,4.36,2.06,8.45,5.51,11.11l6.3-6.3
		c-2.73-1.23-3.95-4.45-2.71-7.18c1.23-2.73,4.45-3.95,7.18-2.71c1.2,0.54,2.17,1.51,2.71,2.71l6.3-6.3
		C22.61,18.83,18.45,16.78,14.04,16.8"/>
</g>
</svg>
