<?xml version="1.0" encoding="utf-8"?>
<!-- Generator: Adobe Illustrator 26.5.0, SVG Export Plug-In . SVG Version: 6.00 Build 0)  -->
<svg version="1.1" id="Layer_1" xmlns="http://www.w3.org/2000/svg" xmlns:xlink="http://www.w3.org/1999/xlink" x="0px" y="0px"
	 width="50px" height="50px" viewBox="0 0 50 50" style="enable-background:new 0 0 50 50;" xml:space="preserve">
<style type="text/css">
	.st0{fill:#DB380E;}
	.st1{fill:#73A1FB;}
</style>
<g>
	<path class="st0" d="M24.77,9.24c-2.31,1.61-4.92,3.46-6.3,6.53c-2.46,5.3,5,11.07,5.3,11.38c0.08,0.08,0.15,0.08,0.23,0.08
		c0.08,0,0.15,0,0.23-0.08c0.15-0.15,0.15-0.31,0.08-0.54c0-0.08-2.69-5.23-2.61-8.92c0-1.31,1.85-2.77,3.77-4.31
		c1.77-1.38,3.77-3,4.92-4.92c2.54-4.15-0.31-8.23-0.31-8.3c-0.08-0.15-0.31-0.23-0.46-0.15c-0.15,0.08-0.31,0.31-0.23,0.46
		c0,0,0.54,2.69-1,5.54C27.76,7.16,26.38,8.16,24.77,9.24z"/>
	<path class="st0" d="M34.45,11.08c0.15-0.15,0.23-0.38,0.08-0.54c-0.08-0.15-0.31-0.23-0.54-0.15c-0.38,0.15-9.61,3.69-9.61,8
		c0,2.92,1.23,4.54,2.15,5.69c0.38,0.46,0.69,0.85,0.77,1.15c0.31,0.92-0.38,2.69-0.69,3.23c-0.08,0.15-0.08,0.38,0.08,0.46
		c0.08,0.08,0.15,0.08,0.23,0.08s0.15,0,0.23-0.08c0.15-0.08,3.84-2.77,3.23-5.92c-0.23-1.23-0.85-2.08-1.38-2.84
		c-0.85-1.23-1.38-2.08-0.54-3.69C29.76,14.69,34.45,11.16,34.45,11.08z"/>
</g>
<g>
	<path class="st1" d="M10.47,29.15c-0.15,0.46-0.08,0.92,0.23,1.38c1,1.38,4.54,2.15,9.99,2.15l0,0c0.77,0,1.54,0,2.31-0.08
		c8.69-0.31,11.92-3,11.99-3.15c0.15-0.15,0.15-0.31,0.08-0.54c-0.08-0.15-0.31-0.23-0.46-0.23c-3.08,0.85-8.76,1.15-12.68,1.15
		c-4.46,0-6.69-0.31-7.23-0.54c0.31-0.38,2-1.08,4.23-1.54c0.23-0.08,0.38-0.23,0.31-0.46c-0.08-0.23-0.23-0.38-0.38-0.38
		C17.54,26.99,11.16,27.07,10.47,29.15z"/>
	<path class="st1" d="M39.53,26.3c-1.77,0-3.46,0.92-3.54,0.92c-0.15,0.08-0.23,0.31-0.23,0.46c0.08,0.15,0.23,0.31,0.38,0.31
		c0,0,3.84,0,4.15,2.15c0.31,1.85-3.61,4.84-5.07,5.92c-0.15,0.08-0.23,0.31-0.15,0.54c0.08,0.15,0.23,0.23,0.38,0.23h0.08
		c0.38-0.08,8.84-1.92,7.92-6.84C42.91,26.99,40.99,26.3,39.53,26.3z"/>
	<path class="st1" d="M33.68,35.53c0-0.15,0-0.31-0.15-0.38l-2-1.46c-0.08-0.08-0.23-0.08-0.31-0.08c0,0-2.15,0.54-5.23,0.92
		c-1.23,0.15-2.61,0.23-4,0.23c-3.08,0-5.07-0.38-5.38-0.62c-0.08-0.08,0-0.08,0-0.15c0.08-0.15,0.31-0.31,0.54-0.38
		c0.23-0.08,0.31-0.31,0.23-0.54s-0.31-0.31-0.46-0.31c-2,0.46-3,1.15-2.92,2.08c0.15,1.54,3.69,2.31,6.69,2.54
		c0.46,0,0.92,0.08,1.38,0.08l0,0c5,0,11.38-1.54,11.45-1.61C33.53,35.76,33.68,35.68,33.68,35.53z"/>
	<path class="st1" d="M18.38,38.83c0.15-0.08,0.23-0.31,0.15-0.46c-0.08-0.15-0.23-0.31-0.38-0.31c-0.31,0-2.69,0.15-2.84,1.61
		c-0.08,0.46,0.08,0.85,0.38,1.23c0.85,1,3.15,1.61,7.07,1.85c0.46,0,0.92,0.08,1.38,0.08c5,0,8.3-1.54,8.46-1.61
		c0.15-0.08,0.23-0.23,0.23-0.38c0-0.15-0.08-0.31-0.23-0.38l-2.54-1.54c-0.08-0.08-0.23-0.08-0.31-0.08c0,0-1.61,0.31-4.07,0.69
		c-0.46,0.08-1.08,0.08-1.77,0.08c-2.46,0-5.15-0.38-5.69-0.69C18.31,38.91,18.31,38.83,18.38,38.83z"/>
	<path class="st1" d="M21.92,47.52c11.38,0,17.53-2.08,18.68-3.31c0.38-0.46,0.46-0.85,0.46-1.15c-0.08-0.69-0.69-1.08-0.77-1.15
		c-0.15-0.08-0.38-0.08-0.54,0.08s-0.15,0.38,0,0.54c0.08,0.08,0.08,0.23-0.08,0.46c-0.46,0.46-5.23,1.77-13.15,2.15
		c-1.08,0.08-2.23,0.08-3.38,0.08c-7.07,0-12.3-1-12.99-1.54c0.23-0.38,2.08-1,4.07-1.31c0.23,0,0.38-0.23,0.31-0.46
		c0-0.23-0.23-0.38-0.46-0.31c-0.08,0-0.23,0-0.46,0c-3.23,0.23-6.92,0.62-7.15,2.31c-0.08,0.54,0.08,1,0.46,1.38
		C7.78,46.21,10.31,47.52,21.92,47.52L21.92,47.52z"/>
	<path class="st1" d="M42.83,44.6c-0.15-0.08-0.38,0-0.46,0.08c0,0-1.77,1.85-6.92,2.84c-2,0.38-5.69,0.62-10.99,0.62
		C19.08,48.14,14,47.9,14,47.9c-0.23,0-0.38,0.15-0.46,0.38c0,0.23,0.08,0.38,0.31,0.46c0.08,0,5.38,1.23,12.68,1.23
		c3.46,0,6.92-0.31,10.07-0.85c6-1.08,6.38-4,6.46-4.15C43.14,44.83,42.99,44.68,42.83,44.6z"/>
</g>
</svg>
