<?xml version="1.0" encoding="utf-8"?>
<!-- Generator: Adobe Illustrator 26.5.0, SVG Export Plug-In . SVG Version: 6.00 Build 0)  -->
<svg version="1.1" id="Layer_1" xmlns="http://www.w3.org/2000/svg" xmlns:xlink="http://www.w3.org/1999/xlink" x="0px" y="0px"
	 width="50px" height="50px" viewBox="0 0 50 50" style="enable-background:new 0 0 50 50;" xml:space="preserve">
<style type="text/css">
	.st0{fill:url(#SVGID_1_);}
	.st1{fill:url(#SVGID_00000154394527456976016930000004041287315377882261_);}
	.st2{fill:url(#SVGID_00000006666505844014053260000013868713217365243040_);}
</style>
<g>
	
		<linearGradient id="SVGID_1_" gradientUnits="userSpaceOnUse" x1="-9247.125" y1="2538.4678" x2="-9184.5186" y2="2550.9419" gradientTransform="matrix(0.0947 0 0 -0.0947 879.2268 281.8904)">
		<stop  offset="0" style="stop-color:#2B7A77"/>
		<stop  offset="0.51" style="stop-color:#4EBAA9"/>
		<stop  offset="1" style="stop-color:#5CC2B1"/>
	</linearGradient>
	<path class="st0" d="M9.34,48.81c-1.35,0-2.06-0.51-2.73-1.7L0.43,35.66C0.01,34.84,0,34.57,0,33.98l9.7,0.43l2.22,2.22h19.46
		L15.23,46.64C14.44,47.1,11.44,48.81,9.34,48.81z"/>
	
		<linearGradient id="SVGID_00000065071709074603628060000016169871326815817863_" gradientUnits="userSpaceOnUse" x1="-9092.0596" y1="2923.6797" x2="-9123.1279" y2="2850.717" gradientTransform="matrix(0.0947 0 0 -0.0947 879.2268 281.8904)">
		<stop  offset="0" style="stop-color:#236736"/>
		<stop  offset="0.493" style="stop-color:#6BA443"/>
		<stop  offset="1" style="stop-color:#86C146"/>
	</linearGradient>
	<path style="fill:url(#SVGID_00000065071709074603628060000016169871326815817863_);" d="M11.93,36.63H3.54C1,36.63,0,35.3,0,33.98
		c0-0.84,0.27-1.29,0.64-2.22l12.23-29.2L13,2.3l0.17-0.26l0.35-0.34l0.52-0.28l0.75-0.16l1.29,0.03l8.5,3.16l-2.87,9.06
		C21.7,13.51,11.93,36.63,11.93,36.63z"/>
	
		<linearGradient id="SVGID_00000140693901658627303250000006788311833167605153_" gradientUnits="userSpaceOnUse" x1="-9060.7334" y1="2955.9314" x2="-9015.0723" y2="2847.1921" gradientTransform="matrix(0.0947 0 0 -0.0947 879.2268 281.8904)">
		<stop  offset="0" style="stop-color:#29A5E3"/>
		<stop  offset="0.515" style="stop-color:#356EB9"/>
		<stop  offset="1" style="stop-color:#394DA5"/>
	</linearGradient>
	<path style="fill:url(#SVGID_00000140693901658627303250000006788311833167605153_);" d="M36.58,48.8L17.27,3.1
		c-0.33-0.78-0.87-1.78-2.25-1.78c-1.23,0-1.82,0.6-2.15,1.24c0.17-0.46,0.69-1.36,2.19-1.36h13.32c1.23,0,1.82,0.72,2.09,1.39
		L50,48.8L36.58,48.8L36.58,48.8z"/>
</g>
</svg>
