<svg width="108" height="105" viewBox="0 0 108 105" fill="none" xmlns="http://www.w3.org/2000/svg">
<path d="M47.6713 14.1419C51.4171 14.1419 54.4537 11.1054 54.4537 7.35955C54.4537 3.61373 51.4171 0.577148 47.6713 0.577148C43.9255 0.577148 40.8889 3.61373 40.8889 7.35955C40.8889 11.1054 43.9255 14.1419 47.6713 14.1419Z" fill="#A6A6A6"/>
<path d="M97.3296 104.56C103.223 104.56 108 99.7822 108 93.8891C108 87.996 103.223 83.2188 97.3296 83.2188C91.4365 83.2188 86.6592 87.996 86.6592 93.8891C86.6592 99.7822 91.4365 104.56 97.3296 104.56Z" fill="#A6A6A6"/>
<path d="M4.7088 98.5983C7.3094 98.5983 9.4176 96.4901 9.4176 93.8895C9.4176 91.2889 7.3094 89.1807 4.7088 89.1807C2.1082 89.1807 0 91.2889 0 93.8895C0 96.4901 2.1082 98.5983 4.7088 98.5983Z" fill="#A6A6A6"/>
<path d="M47.6281 21.292C24.7969 21.292 6.32886 39.76 6.32886 62.5912C6.32886 85.4224 24.7969 103.89 47.6281 103.89C70.4593 103.89 88.9273 85.4224 88.9273 62.5912C88.9273 39.76 70.4593 21.292 47.6281 21.292ZM19.6561 46.5424L47.5633 30.4288L75.3841 46.5424V61.1224L62.5753 56.9968V53.9728L47.5633 45.2896L36.5257 51.7048L75.4057 64.1464V78.7264L47.4985 94.84L19.5913 78.7912V64.1464L32.4649 68.1856V71.2096L47.4769 79.8928L58.6657 73.4128L19.6561 61.0576V46.5424Z" fill="#A6A6A6"/>
</svg>
