<?xml version="1.0" encoding="utf-8"?>
<!-- Generator: Adobe Illustrator 26.5.0, SVG Export Plug-In . SVG Version: 6.00 Build 0)  -->
<svg version="1.1" id="Layer_1" xmlns="http://www.w3.org/2000/svg" xmlns:xlink="http://www.w3.org/1999/xlink" x="0px" y="0px"
	 width="50px" height="50px" viewBox="0 0 50 50" style="enable-background:new 0 0 50 50;" xml:space="preserve">
<style type="text/css">
	.st0{fill:#001E36;}
	.st1{fill:#31A8FF;}
</style>
<path class="st0" d="M8.85,0.63h32.29c4.9,0,8.85,3.96,8.85,8.85v31.04c0,4.9-3.96,8.85-8.85,8.85H8.85c-4.9,0-8.85-3.96-8.85-8.85
	V9.48C0,4.58,3.96,0.63,8.85,0.63z"/>
<g>
	<path class="st1" d="M11.25,34.81V13.38c0-0.15,0.06-0.23,0.21-0.23c0.35,0,0.69,0,1.17-0.02c0.5-0.02,1.02-0.02,1.58-0.04
		c0.56-0.02,1.17-0.02,1.81-0.04c0.65-0.02,1.27-0.02,1.9-0.02c1.71,0,3.12,0.21,4.29,0.65c1.04,0.35,2,0.94,2.79,1.71
		c0.67,0.67,1.19,1.48,1.52,2.38c0.31,0.88,0.48,1.77,0.48,2.71c0,1.79-0.42,3.27-1.25,4.44s-2,2.04-3.35,2.54
		c-1.42,0.52-2.98,0.71-4.69,0.71c-0.5,0-0.83,0-1.04-0.02c-0.21-0.02-0.5-0.02-0.9-0.02v6.69c0.02,0.15-0.08,0.27-0.23,0.29H11.5
		C11.33,35.08,11.25,35,11.25,34.81L11.25,34.81z M15.79,17.17v7c0.29,0.02,0.56,0.04,0.81,0.04h1.1c0.81,0,1.62-0.12,2.4-0.38
		c0.67-0.19,1.25-0.58,1.71-1.1c0.44-0.52,0.65-1.23,0.65-2.15c0.02-0.65-0.15-1.29-0.48-1.85c-0.35-0.54-0.85-0.96-1.46-1.19
		c-0.77-0.31-1.6-0.44-2.46-0.42c-0.54,0-1.02,0-1.42,0.02C16.23,17.13,15.94,17.15,15.79,17.17L15.79,17.17z M40,22.9
		c-0.62-0.33-1.29-0.56-2-0.71c-0.77-0.17-1.54-0.27-2.33-0.27c-0.42-0.02-0.85,0.04-1.25,0.15c-0.27,0.06-0.5,0.21-0.65,0.42
		c-0.1,0.17-0.17,0.38-0.17,0.56c0,0.19,0.08,0.38,0.21,0.54c0.19,0.23,0.44,0.42,0.71,0.56C35,24.4,35.5,24.63,36,24.83
		c1.12,0.38,2.21,0.9,3.21,1.52c0.69,0.44,1.25,1.02,1.65,1.73c0.33,0.67,0.5,1.4,0.48,2.15c0.02,0.98-0.27,1.96-0.81,2.77
		c-0.58,0.83-1.4,1.48-2.33,1.85c-1.02,0.44-2.27,0.67-3.77,0.67c-0.96,0-1.9-0.08-2.83-0.27c-0.73-0.13-1.46-0.35-2.12-0.67
		c-0.15-0.08-0.25-0.23-0.23-0.4v-3.62c0-0.06,0.02-0.15,0.08-0.19c0.06-0.04,0.13-0.02,0.19,0.02c0.81,0.48,1.67,0.81,2.58,1.02
		c0.79,0.21,1.62,0.31,2.46,0.31c0.79,0,1.35-0.1,1.73-0.29c0.33-0.15,0.56-0.5,0.56-0.87c0-0.29-0.17-0.56-0.5-0.83
		s-1.02-0.58-2.04-0.98c-1.06-0.38-2.04-0.87-2.96-1.5c-0.65-0.46-1.19-1.06-1.58-1.77c-0.33-0.67-0.5-1.4-0.48-2.12
		c0-0.9,0.25-1.75,0.71-2.52c0.52-0.83,1.29-1.5,2.19-1.92c0.98-0.5,2.21-0.73,3.69-0.73c0.85,0,1.73,0.06,2.58,0.19
		c0.62,0.08,1.23,0.25,1.79,0.48c0.08,0.02,0.17,0.1,0.21,0.19c0.02,0.08,0.04,0.17,0.04,0.25v3.4c0,0.08-0.04,0.17-0.1,0.21
		C40.19,22.94,40.08,22.94,40,22.9L40,22.9z"/>
</g>
</svg>
