<svg width="79" height="91" viewBox="0 0 79 91" fill="none" xmlns="http://www.w3.org/2000/svg">
<g clip-path="url(#clip0_1_3526)">
<path d="M40.4985 27.9219C33.9356 27.9219 28.2369 31.47 25.1539 36.7111L37.2287 43.6219C39.2607 44.7815 41.7363 44.7815 43.7683 43.6219L55.8197 36.7111C52.7835 31.4468 47.0614 27.9219 40.4985 27.9219Z" fill="#E3E3E3"/>
<path d="M37.2287 43.6217L25.1539 36.7109C23.6358 39.3083 22.7716 42.2999 22.7716 45.5002C22.7716 55.2171 30.6891 63.0787 40.4751 63.0787C50.261 63.0787 58.1786 55.2171 58.1786 45.5002C58.1786 42.2999 57.3144 39.2851 55.7963 36.7109L43.7449 43.6217C41.7596 44.7813 39.2606 44.7813 37.2287 43.6217Z" fill="#D8D8D8"/>
<path d="M77.9373 66.9743L55.843 54.2891C52.7834 59.5533 47.0613 63.0783 40.4984 63.0783V90.9766C41.5494 90.9766 42.5771 90.6983 43.5113 90.165L77.9607 70.4065C77.9607 70.4065 77.984 70.4065 77.984 70.3834C79.3153 69.6413 79.2686 67.7164 77.9373 66.9743Z" fill="#CCCCCC" fill-opacity="0.8"/>
<path d="M40.4984 63.0783C33.9355 63.0783 28.2134 59.5533 25.1538 54.2891L0.817383 68.2498C1.3312 69.1543 2.10193 69.8964 3.0128 70.4297L37.4622 90.1881C38.3964 90.7215 39.424 90.9998 40.475 90.9998V63.0783H40.4984Z" fill="#A6A6A6" fill-opacity="0.8"/>
<path d="M40.4985 27.9218V0.0234375C39.4475 0.0234375 38.4198 0.301725 37.4856 0.835109L3.03624 20.5935C2.10202 21.1269 1.35464 21.8922 0.84082 22.7734L25.1773 36.7342C28.2368 31.4467 33.9589 27.9218 40.4985 27.9218Z" fill="#CCCCCC" fill-opacity="0.8"/>
<path d="M77.984 20.5933C77.984 20.5933 77.9607 20.5933 77.9607 20.5701L43.5113 0.811672C42.5771 0.278288 41.5494 0 40.4984 0V27.8983C47.0613 27.8983 52.7834 31.4233 55.843 36.6876L77.9373 24.0255C79.2686 23.2834 79.3153 21.3586 77.984 20.5933Z" fill="#A6A6A6" fill-opacity="0.8"/>
<path d="M22.795 45.5C22.795 42.2997 23.6591 39.2849 25.1539 36.7108L0.817443 22.75C0.303622 23.6544 0 24.6748 0 25.7416V65.2352C0 66.302 0.280266 67.3224 0.817443 68.2268L25.1539 54.2661C23.6591 51.7151 22.795 48.7003 22.795 45.5Z" fill="#D7D7D7"/>
<path d="M55.843 54.2891C52.7834 59.5533 47.0613 63.0783 40.5218 63.0783C37.906 63.0783 35.4069 62.4985 33.1648 61.5013L63.3635 78.8247L77.984 70.4529C79.3386 69.6876 79.3386 67.7396 77.984 66.9743L55.843 54.2891Z" fill="url(#paint0_linear_1_3526)" fill-opacity="0.8"/>
</g>
<defs>
<linearGradient id="paint0_linear_1_3526" x1="69.951" y1="78.4847" x2="43.1825" y2="51.526" gradientUnits="userSpaceOnUse">
<stop stop-color="#919191" stop-opacity="0.01"/>
<stop offset="1" stop-color="#989898" stop-opacity="0.3"/>
</linearGradient>
<clipPath id="clip0_1_3526">
<rect width="79" height="91" fill="white"/>
</clipPath>
</defs>
</svg>
