<svg width="126" height="56" viewBox="0 0 126 56" fill="none" xmlns="http://www.w3.org/2000/svg">
<path d="M126 30.8783C125.824 33.7565 113.854 46.532 96.1632 52.339C74.5668 59.56 39.7404 56.8837 39.7404 29.7421C39.7404 16.9919 50.0976 6.61497 62.8236 6.61497C75.7008 6.61497 86.0076 17.0676 86.0076 29.7926C86.0076 35.9784 83.3112 42.0126 79.254 46.2543C83.0844 46.2038 96.8436 45.2191 109.847 34.4382C111.283 33.0496 112.19 31.9134 112.594 31.156C112.72 30.8783 112.871 30.651 112.82 30.2976C112.82 27.5455 97.8768 6.13526 66.9564 0C104.177 1.94409 125.824 24.1118 126 30.2976V30.8783ZM62.8236 16.5122C55.6164 16.5122 49.7196 22.4707 49.7196 29.7169C49.7196 37.0135 55.6164 42.8458 62.8236 42.8458C70.1064 42.8458 75.9276 36.9883 75.9276 29.7169C75.9528 22.4959 70.1064 16.5122 62.8236 16.5122ZM13.0536 29.9441C13.0536 29.9441 13.0536 29.7674 13.0536 30.3986C13.6332 33.3778 21.6972 47.5672 52.9704 56C16.7832 53.0712 0.504 35.3472 0.0504 30.3986H0C0 29.7674 0 30.0451 0 29.9946C0 25.1217 22.5036 2.62579 56.6496 0.151489C29.2572 6.53923 13.0536 27.2426 13.0536 29.9441Z" fill="#D9D9D9" fill-opacity="0.8"/>
</svg>
