<svg width="71" height="71" viewBox="0 0 71 71" fill="none" xmlns="http://www.w3.org/2000/svg">
<path d="M11.2474 67.8327H21.8415V57.338H11.2474V67.8327ZM2.51362 48.5048V57.3522H11.361V48.5048H2.51362ZM69.2595 24.1355C65.979 13.5413 57.4582 5.02058 46.8641 1.74009C22.3954 -5.80077 0 12.2206 0 35.4964H13.761C13.761 20.9686 28.1895 9.60758 43.5836 15.1745C49.2641 17.2478 53.8511 21.7354 55.8251 27.4159C61.392 42.7107 50.1446 57.1391 35.6167 57.2386V70.9996C58.7789 70.9996 76.8003 48.6042 69.2595 24.1355ZM35.5031 57.2386V43.577H21.8415V57.2386H35.5031Z" fill="#A6A6A6"/>
</svg>
