<svg width="108" height="103" viewBox="0 0 108 103" fill="none" xmlns="http://www.w3.org/2000/svg">
<path d="M20.1744 102.837C17.2584 102.837 15.7248 101.736 14.2776 99.1655L0.9288 74.4335C0.0216 72.6623 0 72.0791 0 70.8047L20.952 71.7335L25.7472 76.5287H67.7808L32.8968 98.1503C31.1904 99.1439 24.7104 102.837 20.1744 102.837Z" fill="url(#paint0_linear_1_3149)"/>
<path d="M25.7688 76.5291H7.6464C2.16 76.5291 0 73.6563 0 70.8051C0 68.9907 0.5832 68.0187 1.3824 66.0099L27.7992 2.93788L28.08 2.37628L28.4472 1.81468L29.2032 1.08028L30.3264 0.475483L31.9464 0.129883L34.7328 0.194683L53.0928 7.02028L46.8936 26.5899C46.872 26.5899 25.7688 76.5291 25.7688 76.5291Z" fill="url(#paint1_linear_1_3149)"/>
<path d="M79.0129 102.816L37.3033 4.104C36.5905 2.4192 35.4241 0.2592 32.4433 0.2592C29.7865 0.2592 28.5121 1.5552 27.7993 2.9376C28.1665 1.944 29.2897 0 32.5297 0H61.3009C63.9577 0 65.2321 1.5552 65.8153 3.0024L108 102.816H79.0129Z" fill="url(#paint2_linear_1_3149)"/>
<defs>
<linearGradient id="paint0_linear_1_3149" x1="7.61198" y1="87.0425" x2="20.4182" y2="84.4909" gradientUnits="userSpaceOnUse">
<stop stop-color="#3F3F3F"/>
<stop offset="0.51" stop-color="#6B6B6B"/>
<stop offset="1" stop-color="#A6A6A6"/>
</linearGradient>
<linearGradient id="paint1_linear_1_3149" x1="39.3309" y1="8.24702" x2="32.9758" y2="23.1717" gradientUnits="userSpaceOnUse">
<stop stop-color="#4D4D4D"/>
<stop offset="0.493" stop-color="#999A99"/>
<stop offset="1" stop-color="#A6A6A6"/>
</linearGradient>
<linearGradient id="paint2_linear_1_3149" x1="45.7389" y1="1.64958" x2="55.0789" y2="23.8924" gradientUnits="userSpaceOnUse">
<stop stop-color="#D9D9D9"/>
<stop offset="0.515" stop-color="#CACBD3"/>
<stop offset="1" stop-color="#A6A6A6"/>
</linearGradient>
</defs>
</svg>
