<svg width="108" height="106" viewBox="0 0 108 106" fill="none" xmlns="http://www.w3.org/2000/svg">
<path d="M19.116 0.360352H88.8624C99.4464 0.360352 107.978 8.91395 107.978 19.4764V86.5228C107.978 97.1068 99.4248 105.639 88.8624 105.639H19.116C8.532 105.639 0 97.0852 0 86.5228V19.4764C0 8.89235 8.5536 0.360352 19.116 0.360352Z" fill="#A6A6A6"/>
<path d="M24.3 74.1893V27.9005C24.3 27.5765 24.4296 27.4037 24.7536 27.4037C25.5096 27.4037 26.244 27.4037 27.2808 27.3605C28.3608 27.3173 29.484 27.3173 30.6936 27.2741C31.9032 27.2309 33.2208 27.2309 34.6032 27.1877C36.0072 27.1445 37.3464 27.1445 38.7072 27.1445C42.4008 27.1445 45.4464 27.5981 47.9736 28.5485C50.22 29.3045 52.2936 30.5789 54 32.2421C55.4472 33.6893 56.5704 35.4389 57.2832 37.3829C57.9528 39.2837 58.32 41.2061 58.32 43.2365C58.32 47.1029 57.4128 50.2997 55.62 52.8269C53.8272 55.3541 51.3 57.2333 48.384 58.3133C45.3168 59.4365 41.9472 59.8469 38.2536 59.8469C37.1736 59.8469 36.4608 59.8469 36.0072 59.8037C35.5536 59.7605 34.9272 59.7605 34.0632 59.7605V74.2109C34.1064 74.5349 33.8904 74.7941 33.5664 74.8373H24.84C24.4728 74.7725 24.3 74.5997 24.3 74.1893ZM34.1064 36.0869V51.2069C34.7328 51.2501 35.316 51.2933 35.856 51.2933H38.232C39.9816 51.2933 41.7312 51.0341 43.416 50.4725C44.8632 50.0621 46.116 49.2197 47.1096 48.0965C48.06 46.9733 48.5136 45.4397 48.5136 43.4525C48.5568 42.0485 48.1896 40.6661 47.4768 39.4565C46.7208 38.2901 45.6408 37.3829 44.3232 36.8861C42.66 36.2165 40.8672 35.9357 39.0096 35.9789C37.8432 35.9789 36.8064 35.9789 35.9424 36.0221C35.0568 36.0005 34.4304 36.0437 34.1064 36.0869ZM86.4 48.4637C85.0608 47.7509 83.6136 47.2541 82.08 46.9301C80.4168 46.5629 78.7536 46.3469 77.0472 46.3469C76.14 46.3037 75.2112 46.4333 74.3472 46.6709C73.764 46.8005 73.2672 47.1245 72.9432 47.5781C72.7272 47.9453 72.576 48.3989 72.576 48.7877C72.576 49.1981 72.7488 49.6085 73.0296 49.9541C73.44 50.4509 73.98 50.8613 74.5632 51.1637C75.6 51.7037 76.68 52.2005 77.76 52.6325C80.1792 53.4533 82.5336 54.5765 84.6936 55.9157C86.184 56.8661 87.3936 58.1189 88.2576 59.6525C88.9704 61.0997 89.3376 62.6765 89.2944 64.2965C89.3376 66.4133 88.7112 68.5301 87.5448 70.2797C86.292 72.0725 84.5208 73.4765 82.512 74.2757C80.3088 75.2261 77.6088 75.7229 74.3688 75.7229C72.2952 75.7229 70.2648 75.5501 68.256 75.1397C66.6792 74.8589 65.1024 74.3837 63.6768 73.6925C63.3528 73.5197 63.1368 73.1957 63.18 72.8285V65.0093C63.18 64.8797 63.2232 64.6853 63.3528 64.5989C63.4824 64.5125 63.6336 64.5557 63.7632 64.6421C65.5128 65.6789 67.3704 66.3917 69.336 66.8453C71.0424 67.2989 72.8352 67.5149 74.6496 67.5149C76.356 67.5149 77.5656 67.2989 78.3864 66.8885C79.0992 66.5645 79.596 65.8085 79.596 65.0093C79.596 64.3829 79.2288 63.7997 78.516 63.2165C77.8032 62.6333 76.3128 61.9637 74.1096 61.0997C71.82 60.2789 69.7032 59.2205 67.716 57.8597C66.312 56.8661 65.1456 55.5701 64.3032 54.0365C63.5904 52.5893 63.2232 51.0125 63.2664 49.4573C63.2664 47.5133 63.8064 45.6773 64.8 44.0141C65.9232 42.2213 67.5864 40.7741 69.5304 39.8669C71.6472 38.7869 74.304 38.2901 77.5008 38.2901C79.3368 38.2901 81.2376 38.4197 83.0736 38.7005C84.4128 38.8733 85.7304 39.2405 86.94 39.7373C87.1128 39.7805 87.3072 39.9533 87.3936 40.1477C87.4368 40.3205 87.48 40.5149 87.48 40.6877V48.0317C87.48 48.2045 87.3936 48.3989 87.264 48.4853C86.8104 48.5501 86.5728 48.5501 86.4 48.4637Z" fill="#121415"/>
</svg>
