<?xml version="1.0" encoding="utf-8"?>
<!-- Generator: Adobe Illustrator 26.5.0, SVG Export Plug-In . SVG Version: 6.00 Build 0)  -->
<svg version="1.1" id="Ebene_1" xmlns="http://www.w3.org/2000/svg" xmlns:xlink="http://www.w3.org/1999/xlink" x="0px" y="0px"
	 width="50px" height="50px" viewBox="0 0 50 50" style="enable-background:new 0 0 50 50;" xml:space="preserve">
<style type="text/css">
	.st0{fill:url(#SVGID_1_);}
	.st1{fill:url(#SVGID_00000028322459923472725850000014728588271904055217_);}
	.st2{fill:url(#SVGID_00000023987798402495260180000016630489406062093750_);}
	.st3{fill:url(#SVGID_00000060747442023392913970000017128497351519493816_);}
	.st4{fill:url(#SVGID_00000071543843491196381190000013867475947723494812_);}
	.st5{fill:url(#SVGID_00000059273769837110952740000008883326874703821719_);}
	.st6{fill:url(#SVGID_00000046336692958572241210000018362440793289857170_);}
</style>
<g>
	
		<linearGradient id="SVGID_1_" gradientUnits="userSpaceOnUse" x1="24.4517" y1="357.6178" x2="52.8815" y2="352.0916" gradientTransform="matrix(1 0 0 1 0 -334.9139)">
		<stop  offset="0" style="stop-color:#0F6067"/>
		<stop  offset="0.5" style="stop-color:#05ABAC"/>
		<stop  offset="1" style="stop-color:#58BEC4"/>
	</linearGradient>
	<path class="st0" d="M35.04,2.61h15.01L29.99,39.66c0,0-3.38-9.82-4.83-13.32"/>
	<g>
		
			<linearGradient id="SVGID_00000100345324052944646360000006768971601647609728_" gradientUnits="userSpaceOnUse" x1="44.3539" y1="383.8289" x2="48.4175" y2="337.3817" gradientTransform="matrix(1 0 0 1 0 -334.9139)">
			<stop  offset="0" style="stop-color:#117C83"/>
			<stop  offset="0.5" style="stop-color:#21B5B5"/>
			<stop  offset="1" style="stop-color:#7ED4D4"/>
		</linearGradient>
		<path style="fill:url(#SVGID_00000100345324052944646360000006768971601647609728_);" d="M38.74,48.42h11.31V2.61
			C50.04,26.55,39.98,48.42,38.74,48.42z"/>
	</g>
	
		<linearGradient id="SVGID_00000034789171059388489710000013707160018814608291_" gradientUnits="userSpaceOnUse" x1="20.8344" y1="338.1571" x2="10.1144" y2="371.1497" gradientTransform="matrix(1 0 0 1 0 -334.9139)">
		<stop  offset="0" style="stop-color:#9ACCD3"/>
		<stop  offset="0.5" style="stop-color:#72AEB3"/>
		<stop  offset="1" style="stop-color:#317D7F"/>
	</linearGradient>
	<path style="fill:url(#SVGID_00000034789171059388489710000013707160018814608291_);" d="M29.99,39.66h-9.33L0.05,2.61
		C3.7,2.15,11,1.52,14.62,1.22L29.99,39.66z"/>
	
		<linearGradient id="SVGID_00000003822531484742168420000005448125279705196427_" gradientUnits="userSpaceOnUse" x1="-2.5067" y1="375.8206" x2="15.4888" y2="369.9734" gradientTransform="matrix(1 0 0 1 0 -334.9139)">
		<stop  offset="0" style="stop-color:#21626E"/>
		<stop  offset="0.5" style="stop-color:#157C84"/>
		<stop  offset="1" style="stop-color:#03A3A5"/>
	</linearGradient>
	<path style="fill:url(#SVGID_00000003822531484742168420000005448125279705196427_);" d="M12,25.03
		C8.91,37.26,0.04,48.78,0.05,48.78c10.27,0,12.48-1.49,12.48-2.28c0-0.44,0-14.08,0-20.53C12.35,25.66,12.18,25.35,12,25.03z"/>
	
		<linearGradient id="SVGID_00000131336732712988128830000017335631043594300849_" gradientUnits="userSpaceOnUse" x1="11.5631" y1="349.8708" x2="-11.4631" y2="371.343" gradientTransform="matrix(1 0 0 1 0 -334.9139)">
		<stop  offset="0" style="stop-color:#0B7C81"/>
		<stop  offset="0.5" style="stop-color:#068D90"/>
		<stop  offset="1" style="stop-color:#16B1B1"/>
	</linearGradient>
	<path style="fill:url(#SVGID_00000131336732712988128830000017335631043594300849_);" d="M0.05,2.61v46.16
		c5.62-9.28,8.9-15.36,11.79-24.02C4.7,12.13,0.05,2.61,0.05,2.61z"/>
	
		<linearGradient id="SVGID_00000117671844868415450850000016571545935306563494_" gradientUnits="userSpaceOnUse" x1="32.8613" y1="376.0739" x2="44.6262" y2="366.5468" gradientTransform="matrix(1 0 0 1 0 -334.9139)">
		<stop  offset="0" style="stop-color:#0A8A8F"/>
		<stop  offset="0.5" style="stop-color:#0F7C82"/>
		<stop  offset="1" style="stop-color:#1A5964"/>
	</linearGradient>
	<polyline style="fill:url(#SVGID_00000117671844868415450850000016571545935306563494_);" points="37.97,46.61 38.74,48.42 
		38.74,24.37 37.97,25.67 	"/>
	
		<linearGradient id="SVGID_00000062165547314452290270000010415797525512938666_" gradientUnits="userSpaceOnUse" x1="50.67" y1="364.3571" x2="38.1588" y2="356.5392" gradientTransform="matrix(1 0 0 1 0 -334.9139)">
		<stop  offset="0" style="stop-color:#256A77"/>
		<stop  offset="0.5" style="stop-color:#0D9499"/>
		<stop  offset="1" style="stop-color:#06A0A2"/>
	</linearGradient>
	<path style="fill:url(#SVGID_00000062165547314452290270000010415797525512938666_);" d="M38.71,24.42v23.93l0.03,0.08
		c0.81,0,11.31-25.9,11.31-45.81C50.04,2.61,43.63,15.98,38.71,24.42z"/>
</g>
</svg>
