<?xml version="1.0" encoding="utf-8"?>
<!-- Generator: Adobe Illustrator 26.5.0, SVG Export Plug-In . SVG Version: 6.00 Build 0)  -->
<svg version="1.1" id="Layer_1" xmlns="http://www.w3.org/2000/svg" xmlns:xlink="http://www.w3.org/1999/xlink" x="0px" y="0px"
	 width="50px" height="50px" viewBox="0 0 50 50" style="enable-background:new 0 0 50 50;" xml:space="preserve">
<style type="text/css">
	.st0{fill:#0089D6;}
</style>
<path class="st0" d="M23.14,43.85c6.47-1.31,11.71-2.39,11.79-2.39H35l-6.09-8.32c-3.31-4.55-6.09-8.32-6.09-8.32
	s6.24-19.95,6.32-20.03c0,0,4.31,8.47,10.32,20.57l10.4,20.72l0.08,0.15H30.77H11.43L23.14,43.85z"/>
<path class="st0" d="M-0.05,41.31c0,0,2.85-5.7,6.39-12.71l6.39-12.71l7.4-7.16c4.08-3.93,7.4-7.16,7.47-7.16
	c0,0.15-0.08,0.23-0.15,0.31l-8.09,19.95l-7.94,19.49h-5.7C2.57,41.39-0.05,41.31-0.05,41.31z"/>
</svg>
