<svg width="36" height="36" viewBox="0 0 36 36" fill="none" xmlns="http://www.w3.org/2000/svg">
<path opacity="0.5" fill-rule="evenodd" clip-rule="evenodd" d="M4.87476 17.9995C4.87476 17.3782 5.37844 16.8745 5.99976 16.8745H19.8748V19.1245H5.99976C5.37844 19.1245 4.87476 18.6208 4.87476 17.9995Z" fill="#19BBC2"/>
<path d="M19.8748 19.1245V26.9995C19.8748 27.4546 20.1488 27.8647 20.5693 28.0389C20.9896 28.213 21.4735 28.1169 21.7952 27.7951L30.7952 18.7951C31.0063 18.5841 31.1248 18.2979 31.1248 17.9995C31.1248 17.7012 31.0063 17.415 30.7952 17.2041L21.7952 8.20405C21.4735 7.8823 20.9896 7.78606 20.5693 7.96018C20.1488 8.13431 19.8748 8.54453 19.8748 8.99954V16.8745V19.1245Z" fill="#19BBC2"/>
</svg>
