<svg width="40" height="43" viewBox="0 0 40 43" fill="none" xmlns="http://www.w3.org/2000/svg">
<path fill-rule="evenodd" clip-rule="evenodd" d="M9.11378 34.0407H33.4747C34.064 34.0253 34.6146 34.3634 34.9133 34.924C35.2121 35.4846 35.2121 36.1798 34.9133 36.7404C34.6146 37.301 34.064 37.6391 33.4747 37.6237H7.49033C6.59322 37.6237 5.86597 36.8214 5.86597 35.8317L5.86597 7.16569C5.8868 6.19276 6.60771 5.41602 7.48987 5.41602C8.37204 5.41602 9.09295 6.19275 9.11378 7.16569V34.0407Z" fill="#19BBC2"/>
<path opacity="0.3" fill-rule="evenodd" clip-rule="evenodd" d="M15.1725 26.3086C14.5549 27.008 13.5435 27.0333 12.8978 26.3654C12.2522 25.6976 12.21 24.5824 12.803 23.8576L18.8889 16.6906C19.4821 15.9925 20.4678 15.9318 21.1279 16.5526L25.932 21.0776L32.1947 12.3256C32.7504 11.5466 33.7733 11.412 34.4794 12.0251C35.1856 12.6381 35.3075 13.7666 34.7518 14.5456L27.4413 24.7596C27.1677 25.1417 26.765 25.3846 26.3257 25.4323C25.8865 25.4801 25.4485 25.3285 25.1126 25.0126L20.2015 20.3896L15.1725 26.3086Z" fill="#19BBC2"/>
</svg>
