<svg width="36" height="38" viewBox="0 0 36 38" fill="none" xmlns="http://www.w3.org/2000/svg">
<path d="M9.18974 25.543V25.7578V27.0457C9.18974 29.8828 10.3424 32.6049 12.3962 34.6128C14.4501 36.6209 17.237 37.75 20.144 37.75C23.051 37.75 25.8379 36.6209 27.8918 34.6128C29.9456 32.6049 31.0983 29.8828 31.0983 27.0457V21.19H31.3132L31.2821 20.9481C32.6959 20.5784 33.9226 19.7191 34.7345 18.5318C35.5464 17.3448 35.8886 15.9104 35.6985 14.496C35.5083 13.0814 34.7984 11.7815 33.6995 10.8391C32.6005 9.8965 31.1874 9.37609 29.7236 9.37609C28.2598 9.37609 26.8467 9.8965 25.7477 10.8391C24.6488 11.7815 23.9389 13.0814 23.7487 14.496C23.5586 15.9104 23.9008 17.3448 24.7127 18.5318C25.5246 19.7191 26.7513 20.5784 28.1651 20.9481L28.3519 20.997V21.19V27.0428C28.3519 29.1748 27.4856 31.2183 25.9454 32.7241C24.4054 34.2297 22.318 35.0746 20.1425 35.0746C17.9671 35.0746 15.8796 34.2297 14.3397 32.7241C12.7995 31.2183 11.9332 29.1748 11.9332 27.0428V25.7549V25.5401L12.1455 25.5078C14.5776 25.1371 16.7931 23.9292 18.393 22.1033C19.9927 20.2775 20.8719 17.9539 20.8732 15.5517V7.28074C20.8732 7.28071 20.8732 7.28067 20.8732 7.28064C20.8729 6.56782 20.7015 5.86479 20.3724 5.22803C20.0434 4.59122 19.5658 4.03825 18.9776 3.61396L18.8756 3.54038L18.8739 3.41461C18.8641 2.70243 18.6118 2.01305 18.1556 1.45567C17.6994 0.898184 17.0652 0.504465 16.3527 0.338072C15.6403 0.171668 14.8915 0.242423 14.2251 0.538825C13.5589 0.835192 13.014 1.33982 12.6756 1.97168C12.3373 2.60343 12.2244 3.3269 12.3542 4.02785C12.484 4.72885 12.8495 5.36853 13.394 5.84511C13.9386 6.32177 14.6311 6.60787 15.3621 6.65703C16.093 6.70619 16.8194 6.5155 17.4261 6.11594L17.6239 5.98568L17.7646 6.17613C18.0018 6.49697 18.1298 6.88347 18.1297 7.28064C18.1297 7.28066 18.1297 7.28068 18.1297 7.2807V15.5518C18.1297 17.5176 17.331 19.4017 15.911 20.79C14.4913 22.178 12.5669 22.9569 10.5615 22.9569C8.55604 22.9569 6.63164 22.178 5.21191 20.79C3.79198 19.4017 2.99321 17.5176 2.99321 15.5518V7.28064V7.28032C2.99377 6.83407 3.15579 6.40322 3.44931 6.06387L3.60029 5.88932L3.78633 6.02588C4.37092 6.45499 5.08601 6.68158 5.8183 6.66883C6.55058 6.65609 7.25689 6.40477 7.82538 5.95567C8.39377 5.50666 8.79166 4.88588 8.9573 4.19232C9.12293 3.49883 9.0472 2.77107 8.74174 2.12401C8.43623 1.47684 7.91798 0.946675 7.26799 0.618579C6.6179 0.290439 5.8739 0.183597 5.15413 0.315445C4.43441 0.447286 3.78127 0.81001 3.29773 1.34493C2.81428 1.87975 2.52789 2.55615 2.48279 3.26677L2.47475 3.39345L2.36772 3.46171C1.71687 3.87682 1.18275 4.44363 0.813177 5.11041C0.443631 5.77714 0.25011 6.52299 0.249756 7.28064C0.249756 7.28066 0.249756 7.28073 0.249756 7.28075L-0.000244141 7.28064L9.18974 25.543ZM9.18974 25.543L8.97741 25.5106C6.54529 25.14 4.32982 23.932 2.72995 22.1061C1.13023 20.2804 0.2511 17.9569 0.249756 15.5547L9.18974 25.543ZM29.7236 18.4778H29.7238C30.5918 18.477 31.4251 18.1398 32.0408 17.5384C32.6567 16.9368 33.0046 16.1198 33.0063 15.2661L33.0068 15.0156H32.9934C32.9497 14.4673 32.7628 13.9378 32.4492 13.4789C32.0881 12.9506 31.5755 12.5397 30.9769 12.2972C30.3783 12.0548 29.7199 11.9915 29.0848 12.115C28.4497 12.2385 27.8655 12.5435 27.4065 12.9923C26.9474 13.4412 26.6341 14.0137 26.5071 14.6379C26.3801 15.2621 26.4453 15.9091 26.6943 16.4967C26.9432 17.0843 27.3644 17.5856 27.9036 17.9379C28.4428 18.2901 29.0762 18.4778 29.7236 18.4778Z" fill="#19BBC2" stroke="#19BBC2" stroke-width="0.5"/>
</svg>
