<svg width="38" height="42" viewBox="0 0 38 42" fill="none" xmlns="http://www.w3.org/2000/svg">
<path opacity="0.01" fill-rule="evenodd" clip-rule="evenodd" d="M0.32251 0.59375H37.8541V41.9987H0.32251V0.59375Z" fill="#19BBC2"/>
<path opacity="0.3" fill-rule="evenodd" clip-rule="evenodd" d="M29.2537 14.3955C27.0945 14.3955 25.3442 12.4645 25.3442 10.0825C25.3442 7.70053 27.0945 5.76953 29.2537 5.76953C31.4129 5.76953 33.1632 7.70053 33.1632 10.0825C33.1632 12.4645 31.4129 14.3955 29.2537 14.3955H29.2537ZM29.2537 36.8235C27.0945 36.8235 25.3442 34.8925 25.3442 32.5105C25.3442 30.1285 27.0945 28.1975 29.2537 28.1975C31.4129 28.1975 33.1632 30.1285 33.1632 32.5105C33.1621 34.8946 31.4109 36.8247 29.2518 36.8235H29.2537ZM8.9238 36.8235C7.34255 36.8235 5.91699 35.7727 5.31187 34.161C4.70675 32.5494 5.04123 30.6943 6.15935 29.4608C7.27747 28.2273 8.95902 27.8583 10.4199 28.5258C11.8808 29.1934 12.8333 30.7661 12.8333 32.5105C12.8333 34.8925 11.083 36.8235 8.9238 36.8235H8.9238Z" fill="#19BBC2"/>
<path fill-rule="evenodd" clip-rule="evenodd" d="M8.92369 14.3955C6.76451 14.3955 5.01416 12.4645 5.01416 10.0825C5.01416 7.70053 6.76451 5.76953 8.92369 5.76953C11.0829 5.76953 12.8332 7.70053 12.8332 10.0825C12.8332 12.4645 11.0829 14.3955 8.92369 14.3955L8.92369 14.3955ZM17.525 7.49548H20.6523C21.5156 7.49593 22.2152 8.26815 22.2152 9.22055C22.2151 10.173 21.5154 10.9451 20.6521 10.9455H17.5232C16.6598 10.9452 15.9601 10.173 15.9601 9.22051C15.9601 8.26805 16.6598 7.49583 17.5231 7.49548L17.525 7.49548ZM17.525 31.6486H20.6522C21.5153 31.6493 22.2146 32.4214 22.2146 33.3735C22.2146 34.3257 21.5154 35.0978 20.6523 35.0986H17.5231C16.6596 35.0986 15.9595 34.3263 15.9595 33.3736C15.9595 32.4209 16.6596 31.6486 17.5231 31.6486L17.525 31.6486ZM8.14137 17.8466C9.00458 17.846 9.7049 18.6173 9.7059 19.5696V23.0196C9.7056 23.972 9.00563 24.744 8.14227 24.744C7.27892 24.744 6.57894 23.972 6.57865 23.0196V19.5696C6.57972 18.6179 7.27899 17.847 8.1415 17.8466L8.14137 17.8466ZM30.035 17.8466C30.8982 17.846 31.5985 18.6173 31.5995 19.5696V23.0196C31.5995 23.9722 30.8994 24.7446 30.0359 24.7446C29.1723 24.7446 28.4722 23.9722 28.4722 23.0196V19.5696C28.4733 18.6191 29.1709 17.8487 30.0323 17.8466L30.035 17.8466Z" fill="#19BBC2"/>
</svg>
