<svg width="30" height="42" viewBox="0 0 30 42" fill="none" xmlns="http://www.w3.org/2000/svg">
<path fill-rule="evenodd" clip-rule="evenodd" d="M0 15.5523C0 7.36101 6.71572 0.720703 15 0.720703C23.2843 0.720703 30 7.36101 30 15.5523V27.0348C30 35.226 23.2843 41.8663 15 41.8663C6.71572 41.8663 0 35.226 0 27.0348V15.5523ZM15 3.59133C8.31913 3.59133 2.90323 8.94642 2.90323 15.5523V27.0348C2.90323 33.6406 8.31913 38.9957 15 38.9957C21.6809 38.9957 27.0968 33.6406 27.0968 27.0348V15.5523C27.0968 8.94642 21.6809 3.59133 15 3.59133Z" fill="#D9D9D9"/>
<path fill-rule="evenodd" clip-rule="evenodd" d="M14.5 9.86426C15.3284 9.86426 16 10.4613 16 11.1977V16.5314C16 17.2678 15.3284 17.8648 14.5 17.8648C13.6716 17.8648 13 17.2678 13 16.5314V11.1977C13 10.4613 13.6716 9.86426 14.5 9.86426Z" fill="#19BBC2"/>
</svg>
