<svg width="42" height="42" viewBox="0 0 42 42" fill="none" xmlns="http://www.w3.org/2000/svg">
<path d="M41.4261 18.6458L41.427 18.6484C41.4692 18.7726 41.4935 18.9022 41.4992 19.0332C41.4989 19.0452 41.4986 19.0604 41.4985 19.0763C41.498 19.1124 41.4976 19.1677 41.4972 19.2397C41.4965 19.3843 41.4959 19.6014 41.4954 19.8803C41.4943 20.4385 41.4937 21.2462 41.4933 22.2211C41.4926 24.171 41.4931 26.7907 41.494 29.4221C41.4956 33.8064 41.4985 38.2229 41.4995 39.6312C41.4996 39.9135 41.4998 40.075 41.4998 40.0909C41.4998 40.4646 41.3513 40.823 41.087 41.0873C40.8228 41.3515 40.4644 41.5 40.0907 41.5H1.90885C1.53513 41.5 1.17672 41.3515 0.912469 41.0873C0.648214 40.823 0.499756 40.4646 0.499756 40.0909V19.0995C0.50547 18.9433 0.530994 18.7885 0.575719 18.6387L6.30064 1.46393L6.30068 1.46382C6.3941 1.18335 6.57336 0.93936 6.81309 0.766388C7.05277 0.593452 7.34076 0.500262 7.63632 0.5H34.3632C34.6587 0.500262 34.9467 0.593452 35.1864 0.766388C35.4262 0.939359 35.6054 1.18335 35.6988 1.46382L35.6989 1.46393L41.4261 18.6458ZM41.5014 19.0792L41.9989 19.0522C41.998 19.0907 41.9973 19.2067 41.9966 19.3906C41.8561 19.4029 41.7042 19.38 41.5685 19.2914C41.5347 19.2221 41.5078 19.1282 41.5045 19.1079C41.5033 19.0987 41.5018 19.0843 41.5014 19.0792ZM9.01257 3.31818H8.65228L8.53827 3.65997L4.08054 17.0236L3.86098 17.6818H4.55485H10.6639H10.871L11.0175 17.5354L20.0035 8.54933C20.0035 8.54932 20.0036 8.5493 20.0036 8.54928C20.2678 8.28515 20.6261 8.13677 20.9998 8.13677C21.3734 8.13677 21.7317 8.28517 21.996 8.54933L30.9781 17.5353L31.1246 17.6818H31.3318H37.4408H38.1345L37.9152 17.0237L33.4613 3.66009L33.3473 3.31818H32.9869H9.01257ZM18.5907 38.1818V38.6818H19.0907H22.9088H23.4088V38.1818V28.6364V28.1364H22.9088H19.0907H18.5907V28.6364V38.1818ZM38.1816 38.6818H38.6816V38.1818V21V20.5H38.1816H30.5453C30.5453 20.5 30.5452 20.5 30.5452 20.5C30.1716 20.4999 29.8133 20.3514 29.5491 20.0871L29.549 20.0871L21.3533 11.8914L20.9998 11.5378L20.6462 11.8914L12.4505 20.0871L12.4504 20.0871C12.1863 20.3514 11.8279 20.4999 11.4543 20.5C11.4543 20.5 11.4542 20.5 11.4542 20.5H3.81794H3.31794V21V38.1818V38.6818H3.81794H15.2725H15.7725V38.1818V26.7273C15.7725 26.3536 15.9209 25.9952 16.1852 25.7309C16.4495 25.4666 16.8079 25.3182 17.1816 25.3182H24.8179C25.1917 25.3182 25.5501 25.4666 25.8143 25.7309C26.0786 25.9952 26.227 26.3536 26.227 26.7273V38.1818V38.6818H26.727H38.1816ZM22.4088 19.0909C22.4088 19.3696 22.3262 19.642 22.1714 19.8738C22.0165 20.1055 21.7965 20.2861 21.539 20.3927C21.2815 20.4994 20.9982 20.5273 20.7249 20.4729C20.4515 20.4186 20.2004 20.2844 20.0034 20.0873C19.8063 19.8902 19.6721 19.6391 19.6177 19.3658C19.5634 19.0925 19.5913 18.8091 19.6979 18.5517C19.8046 18.2942 19.9852 18.0741 20.2169 17.9193C20.4486 17.7645 20.7211 17.6818 20.9998 17.6818C21.3735 17.6818 21.7319 17.8303 21.9961 18.0945C22.2604 18.3588 22.4088 18.7172 22.4088 19.0909ZM6.22703 25.3182H12.8634V28.1364H6.22703V25.3182ZM29.1361 25.3182H35.7725V28.1364H29.1361V25.3182ZM6.22703 31.0455H12.8634V33.8636H6.22703V31.0455ZM29.1361 31.0455H35.7725V33.8636H29.1361V31.0455Z" fill="#19BBC2" stroke="#151819"/>
</svg>
