<svg width="44" height="44" viewBox="0 0 44 44" fill="none" xmlns="http://www.w3.org/2000/svg">
<path d="M33.5002 13.772H33.0002H32.5002C32.5002 15.1635 32.0114 16.3245 31.0236 17.2856C30.0279 18.2544 28.8579 18.7453 27.4904 18.7721C26.1388 18.7986 24.9796 18.3152 23.9865 17.2952C22.9859 16.2676 22.5002 15.0999 22.5002 13.772H22.0002H21.5002C21.5002 15.1635 21.0114 16.3245 20.0236 17.2856C19.0279 18.2544 17.8579 18.7453 16.4904 18.7721C15.1388 18.7986 13.9796 18.3152 12.9865 17.2952C11.9859 16.2676 11.5002 15.0999 11.5002 13.772H11.0002H10.5002C10.5002 15.1635 10.0114 16.3245 9.02357 17.2856C8.02793 18.2544 6.85793 18.7453 5.49044 18.7721C4.13882 18.7986 2.97964 18.3152 1.98648 17.2952C1.00964 16.292 0.523545 15.1551 0.501062 13.8661L5.83896 0.5H38.1615L43.4995 13.8663C43.4778 15.216 42.989 16.3463 42.0236 17.2856C41.0279 18.2544 39.8579 18.7453 38.4904 18.7721C37.1388 18.7986 35.9796 18.3152 34.9865 17.2952C33.9859 16.2676 33.5002 15.0999 33.5002 13.772ZM6.00024 22.4869C7.65332 22.3998 9.15637 21.8771 10.5002 20.9245V33V33.5H11.0002H33.0002H33.5002V33V20.9245C34.8441 21.8771 36.3472 22.3998 38.0002 22.4869V38H6.00024V22.4869ZM3.27224 41.772H40.7722V43.5H3.27224V41.772Z" fill="#19BBC2" stroke="#141617"/>
</svg>
