<svg width="32" height="38" viewBox="0 0 32 38" fill="none" xmlns="http://www.w3.org/2000/svg">
<path opacity="0.5" d="M15.9999 1.25C8.06213 1.25 1.6499 7.79641 1.6499 15.8436C1.6499 19.7705 2.77076 24.0022 4.75771 27.6607C6.74319 31.3165 9.62594 34.4576 13.1954 36.126C14.9753 36.9581 17.0246 36.9581 18.8045 36.126C22.374 34.4576 25.2567 31.3165 27.2422 27.6607C29.2291 24.0022 30.35 19.7705 30.35 15.8436C30.35 7.79641 23.9378 1.25 15.9999 1.25Z" stroke="#19BBC2" stroke-width="1.5"/>
<path d="M15.9999 20.7C18.8166 20.7 21.0999 18.4167 21.0999 15.6C21.0999 12.7834 18.8166 10.5 15.9999 10.5C13.1833 10.5 10.8999 12.7834 10.8999 15.6C10.8999 18.4167 13.1833 20.7 15.9999 20.7Z" stroke="#19BBC2" stroke-width="1.5"/>
</svg>
