<svg width="70" height="62" viewBox="0 0 70 62" fill="none" xmlns="http://www.w3.org/2000/svg">
<g filter="url(#filter0_d_1_3316)">
<path d="M65.5 38C65.5 47.9411 57.4411 56 47.5 56L20.5 56C17.7386 56 15.5 53.7614 15.5 51L15.5 17C15.5 11.4772 19.9772 7 25.5 7L60.5 7C63.2614 7 65.5 9.23858 65.5 12L65.5 38Z" fill="#19BBC2" fill-opacity="0.47" shape-rendering="crispEdges"/>
</g>
<path d="M27.2506 23.445C27.2506 23.8127 27.5491 24.1106 27.9163 24.1106C28.2835 24.1106 28.5819 23.8127 28.5819 23.445V22.4836C28.5819 22.1159 28.2835 21.818 27.9163 21.818C27.5486 21.818 27.2506 22.1164 27.2506 22.4836V23.445Z" fill="#D9D9D9" stroke="#D9D9D9" stroke-width="0.2"/>
<path d="M26.2038 23.4451V23.445V22.4836C26.2038 22.1159 25.9053 21.818 25.5381 21.818C25.1704 21.818 24.8724 22.1164 24.8724 22.4836V23.445C24.8724 23.8127 25.1709 24.1106 25.5381 24.1106C25.9059 24.1106 26.2033 23.8125 26.2038 23.4451Z" fill="#D9D9D9" stroke="#D9D9D9" stroke-width="0.2"/>
<path d="M22.4942 23.445C22.4942 23.8127 22.7927 24.1106 23.1599 24.1106C23.5276 24.1106 23.8256 23.8126 23.8256 23.445V22.4836C23.8256 22.1159 23.5271 21.818 23.1599 21.818C22.7922 21.818 22.4942 22.1164 22.4942 22.4836V23.445Z" fill="#D9D9D9" stroke="#D9D9D9" stroke-width="0.2"/>
<path d="M27.2506 27.3762C27.2506 27.7439 27.5491 28.0419 27.9163 28.0419C28.2835 28.0419 28.5819 27.7439 28.5819 27.3762V26.4153C28.5819 26.0476 28.2835 25.7496 27.9163 25.7496C27.5486 25.7496 27.2506 26.0481 27.2506 26.4153V27.3762Z" fill="#D9D9D9" stroke="#D9D9D9" stroke-width="0.2"/>
<path d="M26.2038 27.3763V27.3762V26.4153C26.2038 26.0476 25.9053 25.7496 25.5381 25.7496C25.1704 25.7496 24.8724 26.0481 24.8724 26.4153V27.3762C24.8724 27.7439 25.1709 28.0419 25.5381 28.0419C25.9059 28.0419 26.2033 27.7438 26.2038 27.3763Z" fill="#D9D9D9" stroke="#D9D9D9" stroke-width="0.2"/>
<path d="M22.4942 27.3762C22.4942 27.7439 22.7927 28.0419 23.1599 28.0419C23.5276 28.0419 23.8256 27.7439 23.8256 27.3762V26.4153C23.8256 26.0476 23.5271 25.7496 23.1599 25.7496C22.7922 25.7496 22.4942 26.0481 22.4942 26.4153V27.3762Z" fill="#D9D9D9" stroke="#D9D9D9" stroke-width="0.2"/>
<path d="M27.2506 31.3073C27.2506 31.675 27.5491 31.9729 27.9163 31.9729C28.2835 31.9729 28.5819 31.675 28.5819 31.3073V30.3459C28.5819 29.9782 28.2835 29.6803 27.9163 29.6803C27.5486 29.6803 27.2506 29.9787 27.2506 30.3459V31.3073Z" fill="#D9D9D9" stroke="#D9D9D9" stroke-width="0.2"/>
<path d="M26.2038 31.3074V31.3073V30.3459C26.2038 29.9782 25.9053 29.6803 25.5381 29.6803C25.1704 29.6803 24.8724 29.9787 24.8724 30.3459V31.3073C24.8724 31.675 25.1709 31.9729 25.5381 31.9729C25.9059 31.9729 26.2033 31.6748 26.2038 31.3074Z" fill="#D9D9D9" stroke="#D9D9D9" stroke-width="0.2"/>
<path d="M22.4942 31.3073C22.4942 31.675 22.7927 31.9729 23.1599 31.9729C23.5276 31.9729 23.8256 31.6749 23.8256 31.3073V30.3459C23.8256 29.9782 23.5271 29.6803 23.1599 29.6803C22.7922 29.6803 22.4942 29.9787 22.4942 30.3459V31.3073Z" fill="#D9D9D9" stroke="#D9D9D9" stroke-width="0.2"/>
<path d="M27.2506 35.2379C27.2506 35.6056 27.5491 35.9036 27.9163 35.9036C28.2835 35.9036 28.5819 35.6056 28.5819 35.2379V34.2766C28.5819 33.9089 28.2835 33.6109 27.9163 33.6109C27.5486 33.6109 27.2506 33.9094 27.2506 34.2766V35.2379Z" fill="#D9D9D9" stroke="#D9D9D9" stroke-width="0.2"/>
<path d="M26.2038 35.2381V35.2379V34.2766C26.2038 33.9089 25.9053 33.6109 25.5381 33.6109C25.1704 33.6109 24.8724 33.9094 24.8724 34.2766V35.2379C24.8724 35.6056 25.1709 35.9036 25.5381 35.9036C25.9059 35.9036 26.2033 35.6055 26.2038 35.2381Z" fill="#D9D9D9" stroke="#D9D9D9" stroke-width="0.2"/>
<path d="M22.4942 35.2379C22.4942 35.6056 22.7927 35.9036 23.1599 35.9036C23.5276 35.9036 23.8256 35.6056 23.8256 35.2379V34.2766C23.8256 33.9089 23.5271 33.6109 23.1599 33.6109C22.7922 33.6109 22.4942 33.9094 22.4942 34.2766V35.2379Z" fill="#D9D9D9" stroke="#D9D9D9" stroke-width="0.2"/>
<path d="M27.2506 39.1692C27.2506 39.5369 27.5491 39.8349 27.9163 39.8349C28.2835 39.8349 28.5819 39.5364 28.5819 39.1692V38.2083C28.5819 37.8406 28.2835 37.5426 27.9163 37.5426C27.5486 37.5426 27.2506 37.8411 27.2506 38.2083V39.1692Z" fill="#D9D9D9" stroke="#D9D9D9" stroke-width="0.2"/>
<path d="M26.2038 39.1693V39.1692V38.2083C26.2038 37.8406 25.9053 37.5426 25.5381 37.5426C25.1704 37.5426 24.8724 37.8411 24.8724 38.2083V39.1692C24.8724 39.5369 25.1709 39.8349 25.5381 39.8349C25.9059 39.8349 26.2033 39.5363 26.2038 39.1693Z" fill="#D9D9D9" stroke="#D9D9D9" stroke-width="0.2"/>
<path d="M22.4942 39.1691V39.1692C22.4942 39.5369 22.7927 39.8349 23.1599 39.8349C23.5276 39.8349 23.8255 39.5364 23.826 39.1693V39.1692V38.2083C23.826 37.8406 23.5275 37.5426 23.1603 37.5426C22.7926 37.5426 22.4947 37.841 22.4946 38.2082C22.4946 38.2082 22.4946 38.2082 22.4946 38.2083L22.4942 39.1691Z" fill="#D9D9D9" stroke="#D9D9D9" stroke-width="0.2"/>
<path d="M30.2942 13.9753L30.2943 13.9753C30.5001 13.8682 30.7481 13.8754 30.9467 13.9968M30.2942 13.9753L8.7082 43.0816V42.9816M30.2942 13.9753L19.7939 19.4423M30.2942 13.9753L30.8946 14.0821M30.9467 13.9968C31.1452 14.1175 31.2668 14.3328 31.2668 14.5658V26.1749L40.4025 26.1745C40.7702 26.1745 41.0682 26.473 41.0682 26.8402V42.9815H42.0139C42.3816 42.9815 42.6796 43.2799 42.6796 43.6471C42.6796 44.0148 42.3811 44.3128 42.0139 44.3128H7.56615C7.21749 44.3128 6.93152 44.0445 6.90284 43.7036L6.9 43.7018V43.6468C6.9 43.2793 7.19751 42.9811 7.56501 42.9816M30.9467 13.9968C30.9467 13.9968 30.9468 13.9968 30.9468 13.9968L30.8946 14.0821M30.9467 13.9968C30.9467 13.9967 30.9466 13.9967 30.9466 13.9967L30.8946 14.0821M7.56501 42.9816L7.56489 43.0816V42.9816H7.56501ZM7.56501 42.9816H8.7082M8.7082 42.9816H8.8082V30.8261C8.8082 30.5137 9.06186 30.2604 9.37388 30.2604H19.4359V30.1604M8.7082 42.9816V30.8261C8.7082 30.4584 9.00667 30.1604 9.37388 30.1604H19.4359M19.4359 30.1604H19.5359V20.0327C19.5359 19.8217 19.6527 19.6284 19.8401 19.531M19.4359 30.1604V20.0327C19.4359 19.7846 19.5733 19.557 19.7939 19.4423M19.7939 19.4423L19.7939 19.4423L19.8401 19.531M19.7939 19.4423L19.8401 19.531M19.8401 19.531L30.3404 14.064C30.5156 13.9729 30.7262 13.9792 30.8946 14.0821M31.267 34.9422H39.7374V42.9819L31.267 42.9815V34.9422ZM31.267 31.0113H39.7374V33.6113L31.267 33.6109V31.0113ZM31.267 27.5056H39.7374V29.6808H31.267V27.5056ZM20.7667 42.981V20.4369L29.9353 15.663V42.981H20.7667ZM12.8359 38.5635C12.8359 37.4423 13.7237 36.5341 14.8096 36.5341C15.8955 36.5341 16.7837 37.4419 16.7837 38.5635V42.9817H12.8359V38.5635ZM10.0395 31.4916H19.4358V42.9815H18.115V38.5633C18.115 36.7121 16.6345 35.203 14.8096 35.203C12.9855 35.203 11.505 36.7117 11.505 38.5633V42.9815H10.0395V31.4916Z" fill="#D9D9D9" stroke="#D9D9D9" stroke-width="0.2"/>
<defs>
<filter id="filter0_d_1_3316" x="11.5" y="5" width="58" height="57" filterUnits="userSpaceOnUse" color-interpolation-filters="sRGB">
<feFlood flood-opacity="0" result="BackgroundImageFix"/>
<feColorMatrix in="SourceAlpha" type="matrix" values="0 0 0 0 0 0 0 0 0 0 0 0 0 0 0 0 0 0 127 0" result="hardAlpha"/>
<feOffset dy="2"/>
<feGaussianBlur stdDeviation="2"/>
<feComposite in2="hardAlpha" operator="out"/>
<feColorMatrix type="matrix" values="0 0 0 0 0.0980392 0 0 0 0 0.733333 0 0 0 0 0.760784 0 0 0 0.27 0"/>
<feBlend mode="normal" in2="BackgroundImageFix" result="effect1_dropShadow_1_3316"/>
<feBlend mode="normal" in="SourceGraphic" in2="effect1_dropShadow_1_3316" result="shape"/>
</filter>
</defs>
</svg>
