<svg width="70" height="62" viewBox="0 0 70 62" fill="none" xmlns="http://www.w3.org/2000/svg">
<g filter="url(#filter0_d_1_3282)">
<path d="M65.5 38C65.5 47.9411 57.4411 56 47.5 56L20.5 56C17.7386 56 15.5 53.7614 15.5 51L15.5 17C15.5 11.4772 19.9772 7 25.5 7L60.5 7C63.2614 7 65.5 9.23858 65.5 12L65.5 38Z" fill="#19BBC2" fill-opacity="0.47" shape-rendering="crispEdges"/>
</g>
<path d="M23.0021 19C20.0245 19 17.6005 21.4987 17.6005 24.5531C17.6005 26.4854 18.5718 28.1915 20.0387 29.186C18.267 29.7911 16.7341 30.922 15.6097 32.4015C14.9881 31.9131 14.2935 31.5203 13.5447 31.2388C14.6802 30.3778 15.4222 28.9946 15.4222 27.44C15.4222 24.8494 13.3711 22.7287 10.8503 22.7287C8.32957 22.7287 6.27844 24.8494 6.27844 27.44C6.27844 28.9955 7.02108 30.3793 8.15751 31.2404C5.14879 32.3744 3 35.3436 3 38.838V41.2927C3.00031 41.4798 3.07359 41.659 3.20351 41.7908C3.33344 41.9229 3.50925 41.9965 3.69244 41.9959H14.2354C14.261 41.9987 14.2865 42.0003 14.3121 42H31.6927C31.7182 42.0003 31.7441 41.9987 31.7693 41.9959H42.3131C42.6921 41.9943 42.9991 41.6801 43 41.2927V38.838C43 35.3436 40.8549 32.3744 37.8478 31.24C38.9842 30.3793 39.7268 28.9951 39.7268 27.4396C39.7268 24.8491 37.6757 22.7284 35.155 22.7284C32.6343 22.7284 30.5831 24.8491 30.5831 27.4396C30.5831 28.9942 31.3254 30.3777 32.4609 31.2385C31.7106 31.5206 31.0156 31.9147 30.3931 32.4043C29.2693 30.9239 27.7385 29.7915 25.9669 29.186C27.4334 28.1915 28.4051 26.4854 28.4051 24.5531C28.4051 21.4987 25.9798 19 23.0023 19H23.0021ZM23.0021 20.409C25.2291 20.409 27.0243 22.2551 27.0243 24.5531C27.0243 26.8332 25.257 28.6614 23.0547 28.6907C23.0372 28.6907 23.0199 28.6882 23.0021 28.6882C22.9842 28.6882 22.9673 28.6907 22.9494 28.6907C20.7471 28.6618 18.981 26.8333 18.981 24.5531C18.981 22.2548 20.7748 20.409 23.0018 20.409H23.0021ZM10.8504 24.1376C12.6174 24.1376 14.0429 25.6025 14.0429 27.4399C14.0429 29.2649 12.6358 30.7236 10.8855 30.7434C10.8738 30.7434 10.8624 30.7421 10.8504 30.7421C10.8387 30.7421 10.8273 30.7434 10.8153 30.7434C9.06492 30.7235 7.65782 29.2646 7.65782 27.4399C7.65782 25.6026 9.08336 24.1376 10.8503 24.1376H10.8504ZM35.1545 24.1376C36.9215 24.1376 38.3471 25.6025 38.3471 27.4399C38.3471 29.2649 36.94 30.7236 35.1896 30.7434C35.1779 30.7434 35.1665 30.7421 35.1545 30.7421C35.1428 30.7421 35.1314 30.7434 35.1194 30.7434C33.3691 30.7235 31.962 29.2646 31.962 27.4399C31.962 25.6026 33.3875 24.1376 35.1545 24.1376H35.1545ZM22.9493 30.0996C22.9668 30.0999 22.9841 30.1021 23.0019 30.1021C23.0195 30.1021 23.0367 30.0996 23.0546 30.0996C27.4713 30.1285 31.0059 33.7701 31.0059 38.3287L31.0056 40.5906H14.9989V38.3287C14.9989 33.7697 18.5325 30.1286 22.9486 30.0996H22.9493ZM10.7976 32.1539C10.8151 32.1542 10.8324 32.1564 10.8502 32.1564C10.8681 32.1564 10.885 32.1539 10.9029 32.1539C12.3968 32.1662 13.7601 32.6923 14.8457 33.5726C14.0689 34.9766 13.6197 36.5971 13.6197 38.3291V40.5856H4.37879V38.8379C4.37879 35.1331 7.2305 32.1828 10.7974 32.1536L10.7976 32.1539ZM35.1017 32.1539C35.1196 32.1542 35.1365 32.1564 35.1544 32.1564C35.1722 32.1564 35.1892 32.1539 35.207 32.1539C38.774 32.1829 41.6257 35.1335 41.6257 38.8383V40.5856H32.3801L32.3798 38.3291C32.3798 36.5981 31.9318 34.9788 31.1565 33.5751C32.2424 32.6936 33.6067 32.1662 35.1018 32.1539H35.1017Z" fill="#D9D9D9"/>
<defs>
<filter id="filter0_d_1_3282" x="11.5" y="5" width="58" height="57" filterUnits="userSpaceOnUse" color-interpolation-filters="sRGB">
<feFlood flood-opacity="0" result="BackgroundImageFix"/>
<feColorMatrix in="SourceAlpha" type="matrix" values="0 0 0 0 0 0 0 0 0 0 0 0 0 0 0 0 0 0 127 0" result="hardAlpha"/>
<feOffset dy="2"/>
<feGaussianBlur stdDeviation="2"/>
<feComposite in2="hardAlpha" operator="out"/>
<feColorMatrix type="matrix" values="0 0 0 0 0.0980392 0 0 0 0 0.733333 0 0 0 0 0.760784 0 0 0 0.27 0"/>
<feBlend mode="normal" in2="BackgroundImageFix" result="effect1_dropShadow_1_3282"/>
<feBlend mode="normal" in="SourceGraphic" in2="effect1_dropShadow_1_3282" result="shape"/>
</filter>
</defs>
</svg>
