<svg width="70" height="62" viewBox="0 0 70 62" fill="none" xmlns="http://www.w3.org/2000/svg">
<g filter="url(#filter0_d_1_3290)">
<path d="M65.5 38C65.5 47.9411 57.4411 56 47.5 56L20.5 56C17.7386 56 15.5 53.7614 15.5 51L15.5 17C15.5 11.4772 19.9772 7 25.5 7L60.5 7C63.2614 7 65.5 9.23858 65.5 12L65.5 38Z" fill="#0D6367"/>
</g>
<path d="M15.963 23.3504C15.2308 22.8377 14.6818 22.1042 14.3964 21.2572C14.1109 20.4102 14.1039 19.4941 14.3764 18.6428C14.6488 17.7916 15.1865 17.0498 15.9108 16.526C16.635 16.0022 17.5079 15.7238 18.4016 15.7316C19.2954 15.7394 20.1633 16.0329 20.8783 16.5693C21.5933 17.1056 22.118 17.8566 22.3756 18.7125C22.6332 19.5684 22.6102 20.4843 22.31 21.3262C22.0098 22.1681 21.4482 22.8919 20.7072 23.3917" stroke="#D9D9D9" stroke-width="1.5" stroke-linecap="round" stroke-linejoin="round"/>
<path d="M7.95301 32.9069C8.49052 32.1927 9.2424 31.6693 10.0987 31.4131C10.955 31.1568 11.8708 31.1813 12.7122 31.4829C13.5537 31.7844 14.2765 32.3473 14.7751 33.0891C15.2738 33.8309 15.522 34.7128 15.4835 35.6057C15.445 36.4987 15.1219 37.356 14.5613 38.0522C14.0007 38.7483 13.2321 39.2469 12.3679 39.475C11.5037 39.703 10.5891 39.6486 9.75804 39.3197C8.92694 38.9908 8.22287 38.4046 7.74878 37.6469" stroke="#D9D9D9" stroke-width="1.5" stroke-linecap="round" stroke-linejoin="round"/>
<path d="M15.9628 23.3506C16.2439 23.8758 16.1898 24.7685 14.8609 24.9281H6.61822V31.967C6.59381 32.1344 6.61628 32.3052 6.68314 32.4606C6.75 32.616 6.85862 32.7498 6.99695 32.8471C7.13528 32.9445 7.29789 33.0016 7.46671 33.0121C7.63554 33.0226 7.80397 32.9861 7.95328 32.9066" stroke="#D9D9D9" stroke-width="1.5" stroke-linecap="round" stroke-linejoin="round"/>
<path d="M7.74913 37.6467C7.61055 37.5824 7.45664 37.5585 7.3051 37.5778C7.15355 37.597 7.01051 37.6586 6.89241 37.7555C6.7743 37.8524 6.68593 37.9807 6.63744 38.1255C6.58896 38.2704 6.58232 38.426 6.6183 38.5745V45.349H24.1287" stroke="#D9D9D9" stroke-width="1.5" stroke-linecap="round" stroke-linejoin="round"/>
<path d="M17.064 40.428L19.2435 44.221C21.8643 42.6712 24.5406 44.2278 24.5406 47.2679H28.8943C28.8943 44.2279 31.3188 42.814 34.2041 44.2278L36.3851 40.4267C33.6952 38.8833 33.6933 35.8668 36.3842 34.3189L34.2042 30.5292C31.6114 32.0688 28.8943 30.5326 28.8943 27.4785H24.541C24.541 30.5326 21.8647 32.0688 19.242 30.5326L17.0643 34.2507C19.821 35.8651 19.6606 38.936 17.064 40.428Z" stroke="#D9D9D9" stroke-width="1.5" stroke-linecap="round" stroke-linejoin="round"/>
<path d="M26.7245 40.9333C28.6905 40.9333 30.2844 39.3395 30.2844 37.3734C30.2844 35.4073 28.6905 33.8135 26.7245 33.8135C24.7584 33.8135 23.1646 35.4073 23.1646 37.3734C23.1646 39.3395 24.7584 40.9333 26.7245 40.9333Z" stroke="#D9D9D9" stroke-width="1.5" stroke-linecap="round" stroke-linejoin="round"/>
<path d="M20.7072 23.3916C20.3074 23.7132 20.2113 24.7648 21.7209 24.9278H28.8943V27.4782" stroke="#D9D9D9" stroke-width="1.5" stroke-linecap="round" stroke-linejoin="round"/>
<defs>
<filter id="filter0_d_1_3290" x="11.5" y="5" width="58" height="57" filterUnits="userSpaceOnUse" color-interpolation-filters="sRGB">
<feFlood flood-opacity="0" result="BackgroundImageFix"/>
<feColorMatrix in="SourceAlpha" type="matrix" values="0 0 0 0 0 0 0 0 0 0 0 0 0 0 0 0 0 0 127 0" result="hardAlpha"/>
<feOffset dy="2"/>
<feGaussianBlur stdDeviation="2"/>
<feComposite in2="hardAlpha" operator="out"/>
<feColorMatrix type="matrix" values="0 0 0 0 0.0980392 0 0 0 0 0.733333 0 0 0 0 0.760784 0 0 0 0.27 0"/>
<feBlend mode="normal" in2="BackgroundImageFix" result="effect1_dropShadow_1_3290"/>
<feBlend mode="normal" in="SourceGraphic" in2="effect1_dropShadow_1_3290" result="shape"/>
</filter>
</defs>
</svg>
