<svg width="73" height="62" viewBox="0 0 73 62" fill="none" xmlns="http://www.w3.org/2000/svg">
<g filter="url(#filter0_d_1_3305)">
<path d="M68.5 38C68.5 47.9411 60.4411 56 50.5 56L23.5 56C20.7386 56 18.5 53.7614 18.5 51L18.5 17C18.5 11.4772 22.9772 7 28.5 7L63.5 7C66.2614 7 68.5 9.23858 68.5 12L68.5 38Z" fill="#0D6367"/>
</g>
<path d="M13.5861 40.4807L13.5865 40.4806C13.6048 40.4736 13.6257 40.465 13.6481 40.4557C13.6934 40.437 13.7448 40.4157 13.7933 40.4007C13.7934 40.4007 13.7935 40.4007 13.7936 40.4006L13.823 40.4962L13.5861 40.4807ZM13.5861 40.4807C13.5706 40.4867 13.5548 40.4927 13.5389 40.4988C13.4513 40.5322 13.358 40.5677 13.2711 40.6119C13.2217 40.6366 13.1725 40.6672 13.1287 40.6945C13.109 40.7067 13.0903 40.7183 13.0732 40.7284L13.0724 40.7289M13.5861 40.4807L13.0724 40.7289M13.0724 40.7289C13.0539 40.7401 13.0354 40.7505 13.016 40.7613V20.4769V20.4272M13.0724 40.7289L13.016 20.4272M13.016 20.4272C13.0444 19.7222 13.6751 19.1083 14.565 18.9106V40.2527L13.016 20.4272ZM14.965 41.1967H33.233V42.1915H13.1287C13.2208 41.9873 13.3709 41.7984 13.5822 41.639L13.5822 41.6391L13.584 41.6377C13.9418 41.3553 14.432 41.1967 14.965 41.1967ZM14.1735 40.3118L14.1731 40.3119L14.3625 40.2708C14.3625 40.2708 14.3625 40.2709 14.3624 40.2709C14.3262 40.2762 14.2921 40.284 14.2612 40.2915C14.2548 40.293 14.2485 40.2945 14.2424 40.296C14.2181 40.3019 14.1962 40.3073 14.1735 40.3118ZM36.185 44.6425V40.7113V18.3571C36.185 18.0665 35.8905 17.8717 35.585 17.8717H15.165C14.2488 17.8717 13.4144 18.1589 12.807 18.6271C12.1995 19.0953 11.815 19.7488 11.815 20.4769V42.6769C11.815 43.3626 12.177 43.9775 12.7482 44.4178C13.3194 44.8581 14.1038 45.1279 14.965 45.1279H35.585C35.8905 45.1279 36.185 44.9331 36.185 44.6425ZM34.985 40.2258H15.765V18.8425H34.985V40.2258ZM34.985 44.1571H14.965C14.1032 44.1571 13.3934 43.7303 13.1308 43.1623H33.833C34.1385 43.1623 34.433 42.9675 34.433 42.6769V41.1967H34.985V44.1571Z" fill="#D9D9D9" stroke="#D9D9D9" stroke-width="0.2"/>
<path d="M21.54 27.322H28.29C28.5955 27.322 28.89 27.1272 28.89 26.8366V22.2116C28.89 21.921 28.5955 21.7262 28.29 21.7262H21.54C21.2346 21.7262 20.94 21.921 20.94 22.2116V26.8366C20.94 27.1281 21.2347 27.322 21.54 27.322ZM22.14 22.697H27.69V26.3512H22.14V22.697Z" fill="#D9D9D9" stroke="#D9D9D9" stroke-width="0.2"/>
<path d="M20.353 31.947H29.603C29.9085 31.947 30.203 31.7522 30.203 31.4616C30.203 31.171 29.9085 30.9762 29.603 30.9762H20.353C20.0476 30.9762 19.753 31.171 19.753 31.4616C19.753 31.7521 20.0464 31.947 20.353 31.947Z" fill="#D9D9D9" stroke="#D9D9D9" stroke-width="0.2"/>
<defs>
<filter id="filter0_d_1_3305" x="14.5" y="5" width="58" height="57" filterUnits="userSpaceOnUse" color-interpolation-filters="sRGB">
<feFlood flood-opacity="0" result="BackgroundImageFix"/>
<feColorMatrix in="SourceAlpha" type="matrix" values="0 0 0 0 0 0 0 0 0 0 0 0 0 0 0 0 0 0 127 0" result="hardAlpha"/>
<feOffset dy="2"/>
<feGaussianBlur stdDeviation="2"/>
<feComposite in2="hardAlpha" operator="out"/>
<feColorMatrix type="matrix" values="0 0 0 0 0.0980392 0 0 0 0 0.733333 0 0 0 0 0.760784 0 0 0 0.27 0"/>
<feBlend mode="normal" in2="BackgroundImageFix" result="effect1_dropShadow_1_3305"/>
<feBlend mode="normal" in="SourceGraphic" in2="effect1_dropShadow_1_3305" result="shape"/>
</filter>
</defs>
</svg>
